<?xml version="1.0" encoding="UTF-8"?>
<svg width="94px" height="26px" viewBox="0 0 94 26" version="1.1" xmlns="http://www.w3.org/2000/svg" xmlns:xlink="http://www.w3.org/1999/xlink">
    <!-- Generator: Sketch 50.2 (55047) - http://www.bohemiancoding.com/sketch -->
    <title>bsbv-logo</title>
    <desc>Created with Sketch.</desc>
    <defs></defs>
    <g id="bsbv" stroke="none" stroke-width="1" fill="none" fill-rule="evenodd">
        <g id="Outstaffing" transform="translate(-14.000000, -13.000000)">
            <g id="bsbv-logo" transform="translate(14.000000, 13.000000)">
                <g id="logo-small">
                    <g transform="translate(12.250000, 12.750000) scale(-1, 1) rotate(-180.000000) translate(-12.250000, -12.750000) " id="Shape">
                        <polygon fill="#8C191B" fill-rule="nonzero" points="0 22.2117751 0 18.9489611 3.04238803 18.9489611 6.08477606 18.9489611 6.08477606 22.2117751 6.08477606 25.4745891 3.04238803 25.4745891 0 25.4745891"></polygon>
                        <polygon fill="#3D434F" fill-rule="nonzero" points="9.12716434 22.2117751 9.12716434 18.9489611 13.6645188 18.9489611 18.2018743 18.9489611 18.2018743 14.1363125 18.2018743 9.32366391 21.3491728 9.32366391 24.4964693 9.32366391 24.4964693 17.3991265 24.4964693 25.4745892 16.8118173 25.4745892 9.12716434 25.4745892"></polygon>
                        <polygon fill="#3D434F" fill-rule="nonzero" points="0 7.93697408 0 0.0246562826 7.60597046 0.0246562826 15.2119409 0.0246562826 15.2119409 3.1787071 15.2119409 6.33275792 10.6483582 6.33275792 6.08477606 6.33275792 6.08477606 11.0910249 6.08477606 15.8492919 3.04238803 15.8492919 0 15.8492919"></polygon>
                        <polygon fill="#8C191B" fill-rule="nonzero" points="9.12716434 12.5864779 9.12716434 9.32366388 12.2744628 9.32366388 15.4217603 9.32366388 15.4217603 12.5864779 15.4217603 15.8492919 12.2744628 15.8492919 9.12716434 15.8492919 9.12716434 12.5864779"></polygon>
                        <polygon fill="#8C191B" fill-rule="nonzero" points="18.2018743 3.17870707 18.2018743 0.024656249 21.3491728 0.024656249 24.4964693 0.024656249 24.4964693 3.17870707 24.4964693 6.33275789 21.3491728 6.33275789 18.2018743 6.33275789"></polygon>
                    </g>
                </g>
                <g id="Group" transform="translate(29.400000, 0.000000)" fill="#3D434F" fill-rule="nonzero">
                    <path d="M8.83823741,0.581307067 C9.65263634,0.581307067 10.3952956,0.6540376 11.0660597,0.799815352 C11.7368237,0.945593105 12.3116749,1.18465552 12.7907697,1.51621219 C13.2698646,1.84824356 13.6411944,2.28952891 13.9047588,2.83975189 C14.1683232,3.39044956 14.2999497,4.07048097 14.2999497,4.87984676 C14.2999497,5.75403792 14.1043816,6.48260935 13.7130899,7.06556137 C13.3214861,7.64835537 12.7428916,8.12616417 11.9763711,8.49835537 C13.0303175,8.8061959 13.8168002,9.34456065 14.3358196,10.1134502 C14.854839,10.8824972 15.1143487,11.8096549 15.1143487,12.8941322 C15.1143487,13.768323 14.9468526,14.5253544 14.6115486,15.1647516 C14.2759327,15.8046231 13.8245979,16.3267029 13.2578562,16.7313067 C12.6908025,17.1360686 12.0440557,17.4355293 11.3176157,17.6298464 C10.5907078,17.8241639 9.84430557,17.9212433 9.07778515,17.9212433 L0.789382027,17.9212433 L0.789382027,0.581307067 L8.83823741,0.581307067 Z M8.35914259,7.59981535 C9.02990664,7.59981535 9.58089668,7.43822695 10.0119575,7.11410107 C10.4431741,6.79044956 10.6588604,6.26410107 10.6588604,5.53552964 C10.6588604,5.13108377 10.5869648,4.7990524 10.4431741,4.53975189 C10.2995392,4.28108377 10.10787,4.07838646 9.86832259,3.93260903 C9.62877518,3.78698962 9.35320207,3.68595716 9.04191532,3.6290376 C8.73047238,3.57259242 8.40702109,3.54413248 8.07171699,3.54413248 L4.55040131,3.54413248 L4.55040131,7.59981535 L8.35914259,7.59981535 Z M8.57467298,14.9584179 C8.94194771,14.9584179 9.29331522,14.9218944 9.62877518,14.8491639 C9.96407928,14.776275 10.2594585,14.6548464 10.5150693,14.4848782 C10.7703681,14.3147516 10.9738898,14.084069 11.1259465,13.7926722 C11.277535,13.5012753 11.3534853,13.1289258 11.3534853,12.6754662 C11.3534853,11.7853063 11.1056722,11.1497035 10.610826,10.7691325 C10.1156678,10.3888778 9.46112329,10.1983557 8.6465685,10.1983557 L4.55040131,10.1983557 L4.55040131,14.9584182 L8.57467298,14.9584182 L8.57467298,14.9584179 Z" id="Shape"></path>
                    <path d="M20.5281825,13.6468944 C20.7352914,14.0518143 21.0110203,14.379735 21.354746,14.6304976 C21.6978478,14.8817346 22.1008365,15.0676722 22.5643355,15.1891007 C23.0272111,15.3105293 23.5063059,15.3712436 24.00162,15.3712436 C24.3366121,15.3712436 24.6959332,15.3431 25.0795834,15.2861805 C25.4626098,15.2297353 25.8219309,15.120481 26.1575467,14.9584182 C26.4925388,14.7966714 26.7720108,14.5740524 26.9959627,14.290561 C27.2192908,14.0073857 27.3309547,13.6468947 27.3309547,13.2098785 C27.3309547,12.7404496 27.1831089,12.3598785 26.8880415,12.0683233 C26.5923502,11.7769265 26.2055808,11.5340693 25.726486,11.3397519 C25.2473911,11.1455928 24.7040427,10.9754662 24.0970646,10.8298468 C23.4900863,10.6840693 22.8756223,10.5224806 22.2530485,10.3441331 C21.6136316,10.1823864 20.9910577,9.98395817 20.3840797,9.74916486 C19.7771014,9.51452956 19.234377,9.21095813 18.7552822,8.83845057 C18.2761874,8.46610135 17.8887942,8.00046682 17.5937267,7.442022 C17.2980354,6.88341884 17.1501896,6.20749819 17.1501896,5.41410171 C17.1501896,4.52394156 17.33796,3.75046682 17.7135004,3.09478394 C18.088417,2.43910139 18.5793646,1.89267282 19.1863427,1.45549823 C19.7933207,1.01832364 20.4801481,0.694672457 21.2468247,0.484069657 C22.0135014,0.273941238 22.7795539,0.168323638 23.5462305,0.168323638 C24.4407903,0.168323638 25.2985447,0.269672133 26.1213652,0.471895067 C26.9435618,0.674592381 27.6746804,1.00251267 28.3134735,1.45549823 C28.9516428,1.90895817 29.4588097,2.48764109 29.8343501,3.19202135 C30.2092667,3.89624392 30.3976608,4.75035469 30.3976608,5.75403792 L26.7564153,5.75403792 C26.7239767,5.2360693 26.6160555,4.80695789 26.4326519,4.46702135 C26.2492484,4.12692648 26.0053342,3.8598785 25.7021572,3.66556105 C25.3989802,3.4712436 25.0515116,3.33384604 24.6603754,3.25273564 C24.2686157,3.17178326 23.8419217,3.13130707 23.3784224,3.13130707 C23.0752451,3.13130707 22.7714441,3.16387777 22.4682671,3.22838678 C22.1650898,3.29321183 21.8893609,3.40673491 21.6417036,3.56832364 C21.3940464,3.73038642 21.1906809,3.93260935 21.0309826,4.1754665 C20.8712844,4.41832364 20.7914352,4.72616417 20.7914352,5.09835537 C20.7914352,5.43845057 20.8550651,5.71387842 20.9829483,5.92416486 C21.1108318,6.13476766 21.3622317,6.32892676 21.7377721,6.50695886 C22.1126887,6.68530699 22.6317081,6.86333909 23.2948303,7.04121284 C23.9573286,7.21956097 24.8238164,7.44613276 25.8936702,7.72124457 C26.2130668,7.78606962 26.6566038,7.90338743 27.2236573,8.0733557 C27.7900873,8.24332396 28.3527739,8.51464105 28.9123417,8.88699027 C29.4712856,9.25965585 29.9541235,9.75738638 30.3614786,10.3804979 C30.7688341,11.0039261 30.9721997,11.8012753 30.9721997,12.7727039 C30.9721997,13.5661004 30.8206112,14.3027356 30.5174339,14.982609 C30.2136329,15.6626408 29.7626101,16.2497035 29.1637416,16.7433233 C28.564873,17.2374175 27.8225255,17.6217833 26.9360755,17.8968947 C26.0496255,18.1720062 25.0234392,18.3098785 23.8575169,18.3098785 C22.9155465,18.3098785 22.0010244,18.1922446 21.1151979,17.957609 C20.2287476,17.7231318 19.445852,17.3547353 18.7671344,16.8527356 C18.0884167,16.3510524 17.549435,15.7111805 17.1501893,14.9340693 C16.7509436,14.1569582 16.5594306,13.2340693 16.5756499,12.165561 L20.2168954,12.165561 C20.2168954,12.7483547 20.3204499,13.2424489 20.5281825,13.6468944 Z" id="Shape"></path>
                    <path d="M41.2487217,0.581307067 C42.0631207,0.581307067 42.8057799,0.6540376 43.4763878,0.799815352 C44.1473077,0.945592781 44.7221592,1.18465552 45.2012541,1.51621219 C45.6803489,1.84824356 46.0515225,2.28952891 46.3150873,2.83975189 C46.5786517,3.39044956 46.7102782,4.07048097 46.7102782,4.87984676 C46.7102782,5.75403792 46.5147101,6.48260935 46.1235742,7.06556137 C45.7321263,7.64835537 45.15322,8.12616417 44.3868555,8.49835537 C45.4408018,8.8061959 46.2271287,9.34456065 46.7464598,10.1134502 C47.2651671,10.8824972 47.5249889,11.8096549 47.5249889,12.8941322 C47.5249889,13.768323 47.3571808,14.5253544 47.021877,15.1647516 C46.6865729,15.8046231 46.2349264,16.3267029 45.6684964,16.7313067 C45.1014427,17.1360686 44.4545401,17.4355293 43.7281001,17.6298464 C43.0010363,17.8241639 42.2549458,17.9212433 41.4882695,17.9212433 L33.1998667,17.9212433 L33.1998667,0.581307067 L41.2487217,0.581307067 Z M40.7696269,7.59981535 C41.4402348,7.59981535 41.991381,7.43822695 42.4224418,7.11410107 C42.8538143,6.79044956 43.0693447,6.26410107 43.0693447,5.53552964 C43.0693447,5.13108377 42.9972933,4.7990524 42.8538143,4.53975189 C42.7100236,4.28108377 42.5181985,4.07838646 42.2786511,3.93260903 C42.0391037,3.78698962 41.7636864,3.68595716 41.4523997,3.6290376 C41.1408008,3.57259242 40.8176613,3.54413248 40.4820455,3.54413248 L36.9608856,3.54413248 L36.9608856,7.59981535 L40.7696269,7.59981535 Z M40.9851573,14.9584179 C41.3522762,14.9584179 41.7037996,14.9218944 42.0391037,14.8491639 C42.3747195,14.776275 42.669787,14.6548464 42.925554,14.4848782 C43.1806969,14.3147516 43.3843745,14.084069 43.536275,13.7926722 C43.6878635,13.5012753 43.7639699,13.1289258 43.7639699,12.6754662 C43.7639699,11.7853063 43.5163127,11.1497035 43.0213106,10.7691325 C42.5263083,10.3888778 41.8716079,10.1983557 41.057209,10.1983557 L36.960886,10.1983557 L36.960886,14.9584182 L40.9851573,14.9584182 L40.9851573,14.9584179 Z" id="Shape"></path>
                    <polygon id="Shape" points="53.7769317 17.9212433 48.2433191 0.581307067 52.1000998 0.581307067 55.9088414 12.7727039 55.9568758 12.7727039 59.8136514 0.581307067 63.6941324 0.581307067 58.0170458 17.9212439 53.7769317 17.9212439"></polygon>
                </g>
                <text id="G-R-O-U-P" font-family="OpenSans-Semibold, Open Sans" font-size="5.5" font-weight="500" fill="#8C191B">
                    <tspan x="30" y="25">G R O U P</tspan>
                </text>
            </g>
        </g>
    </g>
</svg>