<?xml version="1.0" encoding="UTF-8"?>
<svg width="178px" height="48px" viewBox="0 0 178 48" version="1.1" xmlns="http://www.w3.org/2000/svg" xmlns:xlink="http://www.w3.org/1999/xlink">
    <!-- Generator: sketchtool 50.2 (55047) - http://www.bohemiancoding.com/sketch -->
    <title>54D97887-0E8F-431A-8F23-9560A10F8E65</title>
    <desc>Created with sketchtool.</desc>
    <defs></defs>
    <g id="bsbv" stroke="none" stroke-width="1" fill="none" fill-rule="evenodd">
        <g id="Desktop-menu-" transform="translate(-181.000000, -66.000000)">
            <g id="menu" transform="translate(-2.000000, 0.000000)">
                <g id="bsbv-logo-big" transform="translate(183.000000, 66.000000)">
                    <g id="Group" transform="translate(23.500000, 24.000000) scale(-1, 1) rotate(-180.000000) translate(-23.500000, -24.000000) " fill-rule="nonzero">
                        <polygon id="Shape" fill="#8C191B" points="0 41.8104002 0 35.6686327 5.83641785 35.6686327 11.6728357 35.6686327 11.6728357 41.8104002 11.6728357 47.9521677 5.83641785 47.9521677 0 47.9521677"></polygon>
                        <polygon id="Shape" fill="#3D434F" points="17.509254 41.8104002 17.509254 35.6686327 26.2135668 35.6686327 34.9178814 35.6686327 34.9178814 26.6095294 34.9178814 17.5504262 40.955556 17.5504262 46.9932268 17.5504262 46.9932268 32.751297 46.9932268 47.9521678 32.2512413 47.9521678 17.509254 47.9521678"></polygon>
                        <polygon id="Shape" fill="#3D434F" points="0 14.9401865 0 0.0464118261 14.5910454 0.0464118261 29.1820907 0.0464118261 29.1820907 5.98344866 29.1820907 11.9204855 20.4274627 11.9204855 11.6728357 11.9204855 11.6728357 20.8772234 11.6728357 29.8339613 5.83641785 29.8339613 0 29.8339613"></polygon>
                        <polygon id="Shape" fill="#8C191B" points="17.509254 23.6921936 17.509254 17.5504261 23.5469286 17.5504261 29.5846013 17.5504261 29.5846013 23.6921936 29.5846013 29.8339612 23.5469286 29.8339612 17.509254 29.8339612 17.509254 23.6921936"></polygon>
                        <polygon id="Shape" fill="#8C191B" points="34.9178814 5.9834486 34.9178814 0.0464117628 40.955556 0.0464117628 46.9932268 0.0464117628 46.9932268 5.9834486 46.9932268 11.9204854 40.955556 11.9204854 34.9178814 11.9204854"></polygon>
                    </g>
                    <g id="Group" transform="translate(57.000000, 0.000000)" fill="#3D434F" fill-rule="nonzero">
                        <path d="M16.1117905,1.09375014 C17.6688102,1.09375014 19.0886735,1.23059526 20.3710829,1.50488134 C21.6534923,1.77916742 22.7525294,2.22897195 23.6684934,2.85280774 C24.5844574,3.4775367 25.2943893,4.30783096 25.7982886,5.34309526 C26.3021878,6.37925273 26.5538398,7.65875627 26.5538398,9.1816071 C26.5538398,10.8264292 26.1799402,12.1972625 25.4318437,13.2941077 C24.6831507,14.3906556 23.5769568,15.28967 22.1114743,15.9899611 C24.126476,16.5691742 25.6301237,17.5821268 26.622418,19.0288202 C27.6147123,20.4758097 28.1108595,22.2202902 28.1108595,24.2607732 C28.1108595,25.9055946 27.7906299,27.3299764 27.1495742,28.5330252 C26.5079225,29.7369666 25.6450319,30.7192783 24.561499,31.4805551 C23.4773696,32.2421292 22.240878,32.8055752 20.8520238,33.1711898 C19.462275,33.5368051 18.0352557,33.7194635 16.5697731,33.7194635 L0.723476515,33.7194635 L0.723476515,1.09375014 L16.1117905,1.09375014 Z M15.1958265,14.2993258 C16.478236,14.2993258 17.5316538,13.9952914 18.3557832,13.3854369 C19.1802106,12.776475 19.5925733,11.7861313 19.5925733,10.415298 C19.5925733,9.65431857 19.4551189,9.02958961 19.1802106,8.54170637 C18.9056004,8.05501301 18.5391549,7.67363073 18.0811729,7.39934526 C17.6231909,7.1253571 17.0963327,6.9352609 16.5011949,6.8281647 C15.9057585,6.72196106 15.2873637,6.66841266 14.646308,6.66841266 L7.91403255,6.66841266 L7.91403255,14.2993258 L15.1958265,14.2993258 Z M15.6078913,28.1448009 C16.3100705,28.1448009 16.9818372,28.0760808 17.6231909,27.9392356 C18.2642467,27.8020926 18.8289714,27.5736204 19.3176645,27.253819 C19.8057609,26.9337196 20.1948667,26.4996821 20.4855784,25.9514085 C20.7753949,25.4031349 20.9206014,24.7025458 20.9206014,23.8493453 C20.9206014,22.1744775 20.4468166,20.978568 19.5007382,20.2625099 C18.5540632,19.547047 17.3026634,19.1885728 15.7453457,19.1885728 L7.91403255,19.1885728 L7.91403255,28.1448015 L15.6078913,28.1448015 L15.6078913,28.1448009 Z" id="Shape"></path>
                        <path d="M38.4613716,25.6771224 C38.8573355,26.4389938 39.3844917,27.0559882 40.0416482,27.5278071 C40.6976122,28.0005186 41.4680716,28.3503668 42.3542185,28.5788391 C43.2391735,28.8073113 44.1551374,28.9215474 45.1021105,28.9215474 C45.7425696,28.9215474 46.4295426,28.8685942 47.1630294,28.761498 C47.8953237,28.6552944 48.5822967,28.4497285 49.2239484,28.1448015 C49.8644075,27.8404692 50.3987198,27.4216035 50.8268854,26.8882043 C51.2538583,26.3553998 51.4673445,25.677123 51.4673445,24.8548613 C51.4673445,23.9716138 51.1846835,23.2555557 50.6205547,22.7069841 C50.0552333,22.1587105 49.3157829,21.7017661 48.399819,21.3361508 C47.483855,20.9708335 46.4450468,20.6507341 45.2845876,20.376746 C44.1241278,20.1024605 42.9493563,19.7984255 41.7590801,19.4628583 C40.5366022,19.158526 39.3463259,18.7851762 38.1858667,18.3434041 C37.0254069,17.9019294 35.9877919,17.3307488 35.0718279,16.6298625 C34.1558639,15.929274 33.415221,15.0531659 32.8510922,14.0024319 C32.2857708,12.9514 32.0031098,11.679631 32.0031098,10.186827 C32.0031098,8.51195867 32.3621011,7.05663814 33.0800832,5.82294724 C33.7968726,4.58925695 34.7354976,3.56113195 35.8959568,2.73857224 C37.0564159,1.91601253 38.3695364,1.3070512 39.8353176,0.910794461 C41.3010987,0.515430287 42.7656866,0.316706976 44.2314678,0.316706976 C45.9417441,0.316706976 47.5816537,0.507397813 49.1547742,0.887887531 C50.7267021,1.26926981 52.124501,1.88626362 53.3457863,2.73857224 C54.565879,3.59177342 55.535513,4.68058613 56.2534951,6.00590292 C56.9702845,7.330923 57.3304684,8.93796311 57.3304684,10.8264292 L50.3689034,10.8264292 C50.3068853,9.8518526 50.1005546,9.04446406 49.749912,8.40486125 C49.3992694,7.76496052 48.9329387,7.26250014 48.3533057,6.89688488 C47.7736727,6.53126962 47.10936,6.27275116 46.3615609,6.12013903 C45.6125699,5.96782422 44.7967891,5.89166681 43.9106416,5.89166681 C43.331008,5.89166681 42.7501818,5.95294976 42.1705488,6.07432578 C41.5909152,6.19629644 41.063759,6.40989421 40.5902722,6.7139292 C40.1167853,7.01885615 39.7279782,7.39934586 39.4226569,7.85629031 C39.1173355,8.31323475 38.9646749,8.89244778 38.9646749,9.59273891 C38.9646749,10.2326403 39.0863265,10.7508676 39.3308217,11.1465291 C39.5753175,11.5427859 40.0559598,11.9081032 40.7739419,12.243077 C41.4907313,12.5786454 42.4830256,12.9136192 43.7508248,13.2482951 C45.0174314,13.5838635 46.6740378,14.0101665 48.7194525,14.5277992 C49.3300952,14.6497699 50.1780775,14.8705076 51.2622064,15.190309 C52.3451433,15.5101104 53.4209235,16.0206032 54.4907407,16.7211917 C55.5593653,17.4223753 56.4824854,18.3588732 57.261293,19.53128 C58.0401011,20.7042826 58.4289083,22.2045238 58.4289083,24.0323015 C58.4289083,25.5251055 58.1390918,26.9111113 57.5594582,28.1903175 C56.978632,29.4698216 56.116338,30.5744014 54.971383,31.5031647 C53.826428,32.4328206 52.4071608,33.1560187 50.7123893,33.6736508 C49.0176177,34.191283 47.0556894,34.4506946 44.826605,34.4506946 C43.0256861,34.4506946 41.2772445,34.2293623 39.583665,33.7878869 C37.8888929,33.3467095 36.3921033,32.6535583 35.0944877,31.7090279 C33.796872,30.7650928 32.7664125,29.5611508 32.0031092,28.0989883 C31.2398059,26.6368258 30.8736591,24.9003772 30.9046681,22.8899404 L37.8662331,22.8899404 C37.8662331,23.9864877 38.0642151,24.9161436 38.4613716,25.6771224 Z" id="Shape"></path>
                        <path d="M78.0762173,1.09375014 C79.633237,1.09375014 81.0531002,1.23059526 82.3352111,1.50488134 C83.6179185,1.77916681 84.7169562,2.22897195 85.6329202,2.85280774 C86.5488841,3.4775367 87.2585175,4.30783096 87.7624174,5.34309526 C88.2663166,6.37925273 88.5179686,7.65875627 88.5179686,9.1816071 C88.5179686,10.8264292 88.144069,12.1972625 87.3962705,13.2941077 C86.6478754,14.3906556 85.5410856,15.28967 84.0759011,15.9899611 C86.0909028,16.5691742 87.5942525,17.5821268 88.5871428,19.0288202 C89.5788405,20.4758097 90.0755842,22.2202902 90.0755842,24.2607732 C90.0755842,25.9055946 89.7547581,27.3299764 89.113703,28.5330252 C88.4726473,29.7369666 87.6091607,30.7192783 86.5262238,31.4805551 C85.4420943,32.2421292 84.2053048,32.8055752 82.8164506,33.1711898 C81.4264038,33.5368051 79.9999804,33.7194635 78.5341999,33.7194635 L62.6879039,33.7194635 L62.6879039,1.09375014 L78.0762173,1.09375014 Z M77.1602533,14.2993258 C78.4423641,14.2993258 79.4960805,13.9952914 80.32021,13.3854369 C81.1449354,12.776475 81.5570001,11.7861313 81.5570001,10.415298 C81.5570001,9.65431857 81.4192477,9.02958961 81.1449354,8.54170637 C80.8700271,8.05501301 80.5032837,7.67363073 80.0453017,7.39934526 C79.5873197,7.1253571 79.0607595,6.9352609 78.4656217,6.8281647 C77.8698872,6.72196106 77.2520885,6.66841266 76.6104368,6.66841266 L69.8784593,6.66841266 L69.8784593,14.2993258 L77.1602533,14.2993258 Z M77.572318,28.1448009 C78.2741992,28.1448009 78.946264,28.0760808 79.5873197,27.9392356 C80.2289714,27.8020926 80.7931002,27.5736204 81.2820918,27.253819 C81.7698903,26.9337196 82.1592941,26.4996821 82.4497072,25.9514085 C82.7395237,25.4031349 82.8850288,24.7025458 82.8850288,23.8493453 C82.8850288,22.1744775 82.411542,20.978568 81.4651656,20.2625099 C80.5187885,19.547047 79.2670908,19.1885728 77.7100711,19.1885728 L69.8784599,19.1885728 L69.8784599,28.1448015 L77.572318,28.1448015 L77.572318,28.1448009 Z" id="Shape"></path>
                        <polygon id="Shape" points="102.028446 33.7194635 91.4489336 1.09375014 98.8225725 1.09375014 106.104367 24.0323015 106.196202 24.0323015 113.569831 1.09375014 120.988782 1.09375014 110.134967 33.7194647 102.028446 33.7194647"></polygon>
                    </g>
                    <g id="Group" transform="translate(56.000000, 41.000000)">
                        <rect id="Rectangle-path" x="0.584279681" y="0.3321624" width="129.986548" height="23.2967742"></rect>
                        <polygon id="Shape" fill="#8C191B" fill-rule="nonzero" points="5.50077979 0.3318144 5.50077979 1.0038846 2.0737054 1.0038846 2.0737054 2.910525 5.26834397 2.910525 5.26834397 3.5825952 2.0737054 3.5825952 2.0737054 5.6574 5.52660586 5.6574 5.52660586 6.3294702 1.25567621 6.3294702 1.25567621 0.3318138 5.50077979 0.3318138"></polygon>
                        <polygon id="Shape" fill="#8C191B" fill-rule="nonzero" points="18.2267803 0.3318144 19.2081751 0.3318144 20.7409293 2.6755644 22.3424528 0.3318144 23.2550782 0.3318144 21.2232184 3.2465604 23.3842091 6.3294708 22.3853969 6.3294708 20.7322211 3.851541 19.0273927 6.3294708 18.1147673 6.3294708 20.2502322 3.2465604"></polygon>
                        <path d="M39.0120509,0.3318144 C39.631879,0.3318144 40.1009549,0.4873806 40.4198778,0.7979274 C40.7382004,1.108767 40.8973617,1.544412 40.8973617,2.104275 C40.8973617,2.6644314 40.7382004,3.1012476 40.4198778,3.4147242 C40.1009543,3.7284936 39.631879,3.8823024 39.0120509,3.8767362 L37.1345479,3.8767362 L37.1345479,6.3294708 L36.3165187,6.3294708 L36.3165187,0.3318144 L39.0120509,0.3318144 Z M38.7363716,3.204666 C39.2012426,3.2102322 39.5411876,3.1179474 39.7568062,2.9275176 C39.971824,2.7370878 40.0793331,2.4625764 40.0793331,2.1042756 C40.0793331,1.7459748 39.971824,1.472928 39.7568062,1.2851352 C39.5411876,1.0976352 39.2012432,1.0038852 38.7363716,1.0038852 L37.1345479,1.0038852 L37.1345479,3.2046666 L38.7363716,3.2046666 L38.7363716,3.204666 Z" id="Shape" fill="#8C191B" fill-rule="nonzero"></path>
                        <polygon id="Shape" fill="#8C191B" fill-rule="nonzero" points="58.4105162 0.3318144 58.4105162 1.0038846 54.9834418 1.0038846 54.9834418 2.910525 58.1780803 2.910525 58.1780803 3.5825952 54.9834418 3.5825952 54.9834418 5.6574 58.4363422 5.6574 58.4363422 6.3294702 54.1654126 6.3294702 54.1654126 0.3318138 58.4105162 0.3318138"></polygon>
                        <path d="M74.589117,0.3318144 C75.1747104,0.3318144 75.6323746,0.4718532 75.9627092,0.7519314 C76.2924436,1.0320096 76.4576112,1.4155056 76.4576112,1.9027128 C76.4576112,2.2668732 76.3729256,2.585916 76.2035537,2.8601346 C76.0341817,3.1346466 75.7633075,3.3221466 75.3897288,3.4229274 L75.3897288,3.4399194 C75.5675087,3.4736106 75.7128566,3.5295678 75.8245694,3.6077904 C75.9368832,3.6863058 76.0257731,3.7800558 76.0918402,3.8893332 C76.1573063,3.9986106 76.2065562,4.1201928 76.2377883,4.2546654 C76.2696207,4.389138 76.2942456,4.5291774 76.3110628,4.6747824 C76.3224746,4.820388 76.3314835,4.96863 76.3368889,5.1198018 C76.3428952,5.2709736 76.3573095,5.419509 76.3801324,5.5651146 C76.4029553,5.7107202 76.4359889,5.8492944 76.479233,5.9808372 C76.5224772,6.11238 76.5867422,6.2286888 76.672629,6.3294708 L75.7603044,6.3294702 C75.7026459,6.2679468 75.664207,6.1838646 75.6437863,6.077517 C75.623966,5.9711694 75.6107528,5.8522242 75.6053474,5.720388 C75.5993411,5.5888452 75.5933354,5.4473412 75.5879299,5.2961694 C75.5819236,5.1449976 75.565107,4.9967556 75.5362778,4.85115 C75.5134549,4.7055444 75.4846257,4.5669702 75.450391,4.4351346 C75.4155554,4.3038846 75.3609002,4.189041 75.2864245,4.0908966 C75.2119488,3.993045 75.1146503,3.9145296 74.9939279,3.8556426 C74.8732056,3.7967556 74.7128432,3.7674588 74.5116388,3.7674588 L72.5140137,3.7674588 L72.5140137,6.3294708 L71.6959845,6.3294708 L71.6959845,0.3318144 L74.589117,0.3318144 Z M74.7614921,3.0534942 C74.9338666,3.0253692 75.084019,2.9708772 75.21315,2.8897248 C75.3428818,2.8085724 75.4461861,2.699295 75.5236649,2.562186 C75.6011437,2.4247836 75.6395827,2.2469514 75.6395827,2.02869 C75.6395827,1.7263464 75.5536959,1.4799594 75.3813208,1.2895296 C75.2089457,1.0990998 74.9308641,1.0038852 74.5458741,1.0038852 L72.5140143,1.0038852 L72.5140143,3.0953892 L74.2191429,3.0953892 C74.408334,3.0953886 74.589117,3.0816192 74.7614921,3.0534942 Z" id="Shape" fill="#8C191B" fill-rule="nonzero"></path>
                        <polygon id="Shape" fill="#8C191B" fill-rule="nonzero" points="89.0547816 1.0038846 89.0547816 0.3318144 93.9713659 0.3318144 93.9713659 1.0038846 91.9220887 1.0038846 91.9220887 6.3294708 91.1040595 6.3294708 91.1040595 1.0038846"></polygon>
                        <path d="M109.998622,1.1509554 C109.725946,0.9575958 109.377593,0.8612094 108.952963,0.8612094 C108.780588,0.8612094 108.611216,0.8779086 108.444847,0.9115998 C108.277878,0.9449982 108.130128,1.0012482 108.000997,1.0794708 C107.871866,1.1579862 107.768561,1.2628692 107.691083,1.394412 C107.613604,1.5262482 107.575166,1.6900176 107.575166,1.8860136 C107.575166,2.0705838 107.631022,2.2205838 107.742735,2.3351346 C107.855049,2.4499782 108.004,2.5440216 108.19079,2.6166774 C108.376978,2.6896266 108.587792,2.7496854 108.823231,2.797146 C109.058669,2.8449 109.298312,2.8967556 109.54276,2.9527122 C109.786607,3.0086694 110.026251,3.0745872 110.261689,3.1501734 C110.496527,3.2257596 110.707941,3.3280056 110.89413,3.4566186 C111.080919,3.585525 111.22987,3.7478298 111.342184,3.9438258 C111.453898,4.1398218 111.509754,4.3862088 111.509754,4.6829862 C111.509754,5.0023224 111.43648,5.2753692 111.290532,5.5021266 C111.143984,5.7288846 110.955993,5.9137476 110.726561,6.0564234 C110.496528,6.199392 110.240067,6.3031032 109.955979,6.367263 C109.671891,6.4317162 109.389004,6.4639428 109.10792,6.4639428 C108.76317,6.4639428 108.43764,6.4217556 108.130128,6.3379662 C107.823217,6.253884 107.553544,6.1264428 107.321108,5.955642 C107.088672,5.7848412 106.904886,5.5665792 106.769749,5.3005638 C106.635213,5.0345484 106.567344,4.7196066 106.567344,4.3554468 L107.34273,4.3554468 C107.34273,4.6074 107.39258,4.8244896 107.493482,5.0064234 C107.593784,5.18865 107.725918,5.3383572 107.889284,5.4558372 C108.052649,5.5736106 108.243643,5.6603292 108.461664,5.7162864 C108.679685,5.7722436 108.903712,5.8003686 109.133745,5.8003686 C109.316931,5.8003686 109.502519,5.7833766 109.688708,5.7499782 C109.875497,5.716287 110.043067,5.6588652 110.192619,5.5777128 C110.34157,5.4965604 110.462292,5.3858184 110.554185,5.245779 C110.646079,5.106033 110.691725,4.9267362 110.691725,4.7081814 C110.691725,4.5010524 110.635869,4.3331814 110.524155,4.204275 C110.411841,4.0753686 110.26289,3.9704862 110.076101,3.8893338 C109.889912,3.8081814 109.678498,3.7422636 109.44366,3.6918726 C109.208221,3.6414822 108.968578,3.5896266 108.724731,3.5365992 C108.480283,3.483279 108.240641,3.4217556 108.005802,3.3517362 C107.770364,3.2817168 107.55895,3.1894314 107.372761,3.0745878 C107.185971,2.9597442 107.037021,2.8112088 106.924706,2.629275 C106.812993,2.4473412 106.757136,2.2191186 106.757136,1.9446072 C106.757136,1.6422636 106.8202,1.3806426 106.946328,1.159158 C107.072456,0.9382596 107.240627,0.756033 107.450239,0.6133572 C107.659851,0.4703886 107.897692,0.364041 108.164963,0.294021 C108.431634,0.2240016 108.705511,0.189138 108.987197,0.189138 C109.302516,0.189138 109.595614,0.2254662 109.865287,0.2984154 C110.13496,0.3710718 110.3716,0.4859154 110.575807,0.6426534 C110.779413,0.7993914 110.940376,0.9968526 111.058096,1.234743 C111.175215,1.4729268 111.24008,1.757106 111.251492,2.0875752 L110.476706,2.0875752 C110.430461,1.6563264 110.271299,1.3440216 109.998622,1.1509554 Z" id="Shape" fill="#8C191B" fill-rule="nonzero"></path>
                    </g>
                </g>
            </g>
        </g>
    </g>
</svg>