<?xml version="1.0" encoding="UTF-8"?>
<svg width="77px" height="78px" viewBox="0 0 77 78" version="1.1" xmlns="http://www.w3.org/2000/svg" xmlns:xlink="http://www.w3.org/1999/xlink">
    <!-- Generator: sketchtool 50.2 (55047) - http://www.bohemiancoding.com/sketch -->
    <title>4991E624-7B72-47F4-9FE9-CE9CB1AC1FBD</title>
    <desc>Created with sketchtool.</desc>
    <defs></defs>
    <g id="bsbv" stroke="none" stroke-width="1" fill="none" fill-rule="evenodd">
        <g id="Agenturen-" transform="translate(-500.000000, -2376.000000)" fill-rule="nonzero">
            <g id="steps" transform="translate(383.000000, 1823.000000)">
                <g id="03" transform="translate(7.000000, 553.666667)">
                    <g id="browser" transform="translate(110.000000, 0.000000)">
                        <rect id="Rectangle-path" fill="#F7F7F7" x="0" y="0" width="77" height="77"></rect>
                        <rect id="Rectangle-path" fill="#3D434F" x="0" y="0" width="77" height="16"></rect>
                        <circle id="Oval" fill="#ED7161" cx="9" cy="9" r="4"></circle>
                        <circle id="Oval" fill="#F0C419" cx="20" cy="9" r="4"></circle>
                        <circle id="Oval" fill="#4FBA6F" cx="32" cy="9" r="4"></circle>
                        <rect id="Rectangle-path" fill="#95A5A5" x="0" y="16" width="9" height="61"></rect>
                        <g id="Group" transform="translate(3.000000, 22.000000)" fill="#BDC3C7">
                            <path d="M1.66666667,2.68421053 L3.33333333,2.68421053 C4.255,2.68421053 5,2.08428947 5,1.34210526 C5,0.599921053 4.255,0 3.33333333,0 L1.66666667,0 C0.745,0 0,0.599921053 0,1.34210526 C0,2.08428947 0.745,2.68421053 1.66666667,2.68421053 Z" id="Shape"></path>
                            <path d="M3.33333333,5.36842105 L1.66666667,5.36842105 C0.745,5.36842105 0,5.96834211 0,6.71052632 C0,7.45271053 0.745,8.05263158 1.66666667,8.05263158 L3.33333333,8.05263158 C4.255,8.05263158 5,7.45271053 5,6.71052632 C5,5.96834211 4.255,5.36842105 3.33333333,5.36842105 Z" id="Shape"></path>
                            <path d="M3.33333333,10.7368421 L1.66666667,10.7368421 C0.745,10.7368421 0,11.3367632 0,12.0789474 C0,12.8211316 0.745,13.4210526 1.66666667,13.4210526 L3.33333333,13.4210526 C4.255,13.4210526 5,12.8211316 5,12.0789474 C5,11.3367632 4.255,10.7368421 3.33333333,10.7368421 Z" id="Shape"></path>
                            <path d="M3.33333333,16.1052632 L1.66666667,16.1052632 C0.745,16.1052632 0,16.7051842 0,17.4473684 C0,18.1895526 0.745,18.7894737 1.66666667,18.7894737 L3.33333333,18.7894737 C4.255,18.7894737 5,18.1895526 5,17.4473684 C5,16.7051842 4.255,16.1052632 3.33333333,16.1052632 Z" id="Shape"></path>
                            <path d="M3.33333333,21.4736842 L1.66666667,21.4736842 C0.745,21.4736842 0,22.0736053 0,22.8157895 C0,23.5579737 0.745,24.1578947 1.66666667,24.1578947 L3.33333333,24.1578947 C4.255,24.1578947 5,23.5579737 5,22.8157895 C5,22.0736053 4.255,21.4736842 3.33333333,21.4736842 Z" id="Shape"></path>
                            <path d="M3.33333333,26.8421053 L1.66666667,26.8421053 C0.745,26.8421053 0,27.4420263 0,28.1842105 C0,28.9263947 0.745,29.5263158 1.66666667,29.5263158 L3.33333333,29.5263158 C4.255,29.5263158 5,28.9263947 5,28.1842105 C5,27.4420263 4.255,26.8421053 3.33333333,26.8421053 Z" id="Shape"></path>
                            <path d="M3.33333333,32.2105263 L1.66666667,32.2105263 C0.745,32.2105263 0,32.8104474 0,33.5526316 C0,34.2948158 0.745,34.8947368 1.66666667,34.8947368 L3.33333333,34.8947368 C4.255,34.8947368 5,34.2948158 5,33.5526316 C5,32.8104474 4.255,32.2105263 3.33333333,32.2105263 Z" id="Shape"></path>
                            <path d="M3.33333333,37.5789474 L1.66666667,37.5789474 C0.745,37.5789474 0,38.1788684 0,38.9210526 C0,39.6632368 0.745,40.2631579 1.66666667,40.2631579 L3.33333333,40.2631579 C4.255,40.2631579 5,39.6632368 5,38.9210526 C5,38.1788684 4.255,37.5789474 3.33333333,37.5789474 Z" id="Shape"></path>
                            <path d="M3.33333333,42.9473684 L1.66666667,42.9473684 C0.745,42.9473684 0,43.5472895 0,44.2894737 C0,45.0316579 0.745,45.6315789 1.66666667,45.6315789 L3.33333333,45.6315789 C4.255,45.6315789 5,45.0316579 5,44.2894737 C5,43.5472895 4.255,42.9473684 3.33333333,42.9473684 Z" id="Shape"></path>
                            <path d="M3.33333333,48.3157895 L1.66666667,48.3157895 C0.745,48.3157895 0,48.9157105 0,49.6578947 C0,50.4000789 0.745,51 1.66666667,51 L3.33333333,51 C4.255,51 5,50.4000789 5,49.6578947 C5,48.9157105 4.255,48.3157895 3.33333333,48.3157895 Z" id="Shape"></path>
                        </g>
                        <path d="M34.6,25 L16.4,25 C15.6258,25 15,24.3295 15,23.5 C15,22.6705 15.6258,22 16.4,22 L34.6,22 C35.3742,22 36,22.6705 36,23.5 C36,24.3295 35.3742,25 34.6,25 Z" id="Shape" fill="#5A9BCC"></path>
                        <path d="M52.6666667,25 L39.3333333,25 C38.596,25 38,24.3295 38,23.5 C38,22.6705 38.596,22 39.3333333,22 L52.6666667,22 C53.404,22 54,22.6705 54,23.5 C54,24.3295 53.404,25 52.6666667,25 Z" id="Shape" fill="#EEDE4B"></path>
                        <path d="M58.75,25 L56.25,25 C55.55875,25 55,24.3295 55,23.5 C55,22.6705 55.55875,22 56.25,22 L58.75,22 C59.44125,22 60,22.6705 60,23.5 C60,24.3295 59.44125,25 58.75,25 Z" id="Shape" fill="#4FBA6F"></path>
                        <path d="M65.7058824,29 L46.2941176,29 C45.5784706,29 45,28.3295 45,27.5 C45,26.6705 45.5784706,26 46.2941176,26 L65.7058824,26 C66.4215294,26 67,26.6705 67,27.5 C67,28.3295 66.4215294,29 65.7058824,29 Z" id="Shape" fill="#5A9BCC"></path>
                        <path d="M42.625,29 L23.375,29 C22.614625,29 22,28.3295 22,27.5 C22,26.6705 22.614625,26 23.375,26 L42.625,26 C43.385375,26 44,26.6705 44,27.5 C44,28.3295 43.385375,29 42.625,29 Z" id="Shape" fill="#8C191B"></path>
                        <path d="M18.3333333,29 L16.6666667,29 C15.745,29 15,28.3295 15,27.5 C15,26.6705 15.745,26 16.6666667,26 L18.3333333,26 C19.255,26 20,26.6705 20,27.5 C20,28.3295 19.255,29 18.3333333,29 Z" id="Shape" fill="#8C191B"></path>
                        <path d="M28.6363636,35 L16.3636364,35 C15.6095455,35 15,34.3295 15,33.5 C15,32.6705 15.6095455,32 16.3636364,32 L28.6363636,32 C29.3904545,32 30,32.6705 30,33.5 C30,34.3295 29.3904545,35 28.6363636,35 Z" id="Shape" fill="#5A9BCC"></path>
                        <path d="M35.75,35 L33.25,35 C32.55875,35 32,34.3295 32,33.5 C32,32.6705 32.55875,32 33.25,32 L35.75,32 C36.44125,32 37,32.6705 37,33.5 C37,34.3295 36.44125,35 35.75,35 Z" id="Shape" fill="#EEDE4B"></path>
                        <path d="M59.625,35 L40.375,35 C39.614625,35 39,34.3295 39,33.5 C39,32.6705 39.614625,32 40.375,32 L59.625,32 C60.385375,32 61,32.6705 61,33.5 C61,34.3295 60.385375,35 59.625,35 Z" id="Shape" fill="#4FBA6F"></path>
                        <path d="M34.6,41 L16.4,41 C15.6258,41 15,40.3295 15,39.5 C15,38.6705 15.6258,38 16.4,38 L34.6,38 C35.3742,38 36,38.6705 36,39.5 C36,40.3295 35.3742,41 34.6,41 Z" id="Shape" fill="#EEDE4B"></path>
                        <path d="M52.6666667,41 L39.3333333,41 C38.596,41 38,40.3295 38,39.5 C38,38.6705 38.596,38 39.3333333,38 L52.6666667,38 C53.404,38 54,38.6705 54,39.5 C54,40.3295 53.404,41 52.6666667,41 Z" id="Shape" fill="#4FBA6F"></path>
                        <path d="M56.7,46 L46.3,46 C45.5811,46 45,45.3295 45,44.5 C45,43.6705 45.5811,43 46.3,43 L56.7,43 C57.4189,43 58,43.6705 58,44.5 C58,45.3295 57.4189,46 56.7,46 Z" id="Shape" fill="#EEDE4B"></path>
                        <path d="M42.625,46 L23.375,46 C22.614625,46 22,45.3295 22,44.5 C22,43.6705 22.614625,43 23.375,43 L42.625,43 C43.385375,43 44,43.6705 44,44.5 C44,45.3295 43.385375,46 42.625,46 Z" id="Shape" fill="#5A9BCC"></path>
                        <path d="M18.3333333,46 L16.6666667,46 C15.745,46 15,45.3295 15,44.5 C15,43.6705 15.745,43 16.6666667,43 L18.3333333,43 C19.255,43 20,43.6705 20,44.5 C20,45.3295 19.255,46 18.3333333,46 Z" id="Shape" fill="#4FBA6F"></path>
                        <path d="M28.6363636,50 L16.3636364,50 C15.6095455,50 15,49.3295 15,48.5 C15,47.6705 15.6095455,47 16.3636364,47 L28.6363636,47 C29.3904545,47 30,47.6705 30,48.5 C30,49.3295 29.3904545,50 28.6363636,50 Z" id="Shape" fill="#EEDE4B"></path>
                        <path d="M35.75,50 L33.25,50 C32.55875,50 32,49.3295 32,48.5 C32,47.6705 32.55875,47 33.25,47 L35.75,47 C36.44125,47 37,47.6705 37,48.5 C37,49.3295 36.44125,50 35.75,50 Z" id="Shape" fill="#5A9BCC"></path>
                        <path d="M59.7058824,50 L40.2941176,50 C39.5784706,50 39,49.3295 39,48.5 C39,47.6705 39.5784706,47 40.2941176,47 L59.7058824,47 C60.4215294,47 61,47.6705 61,48.5 C61,49.3295 60.4215294,50 59.7058824,50 Z" id="Shape" fill="#8C191B"></path>
                        <path d="M34.6,56 L16.4,56 C15.6258,56 15,55.3295 15,54.5 C15,53.6705 15.6258,53 16.4,53 L34.6,53 C35.3742,53 36,53.6705 36,54.5 C36,55.3295 35.3742,56 34.6,56 Z" id="Shape" fill="#5A9BCC"></path>
                        <path d="M52.6666667,56 L39.3333333,56 C38.596,56 38,55.3295 38,54.5 C38,53.6705 38.596,53 39.3333333,53 L52.6666667,53 C53.404,53 54,53.6705 54,54.5 C54,55.3295 53.404,56 52.6666667,56 Z" id="Shape" fill="#4FBA6F"></path>
                        <path d="M66.5555556,56 L56.4444444,56 C55.6456667,56 55,55.3295 55,54.5 C55,53.6705 55.6456667,53 56.4444444,53 L66.5555556,53 C67.3543333,53 68,53.6705 68,54.5 C68,55.3295 67.3543333,56 66.5555556,56 Z" id="Shape" fill="#8C191B"></path>
                        <path d="M51.6666667,62 L46.3333333,62 C45.596,62 45,61.3295 45,60.5 C45,59.6705 45.596,59 46.3333333,59 L51.6666667,59 C52.404,59 53,59.6705 53,60.5 C53,61.3295 52.404,62 51.6666667,62 Z" id="Shape" fill="#5A9BCC"></path>
                        <path d="M42.625,62 L23.375,62 C22.614625,62 22,61.3295 22,60.5 C22,59.6705 22.614625,59 23.375,59 L42.625,59 C43.385375,59 44,59.6705 44,60.5 C44,61.3295 43.385375,62 42.625,62 Z" id="Shape" fill="#8C191B"></path>
                        <path d="M18.3333333,62 L16.6666667,62 C15.745,62 15,61.3295 15,60.5 C15,59.6705 15.745,59 16.6666667,59 L18.3333333,59 C19.255,59 20,59.6705 20,60.5 C20,61.3295 19.255,62 18.3333333,62 Z" id="Shape" fill="#EEDE4B"></path>
                        <path d="M28.6363636,67 L16.3636364,67 C15.6095455,67 15,66.3295 15,65.5 C15,64.6705 15.6095455,64 16.3636364,64 L28.6363636,64 C29.3904545,64 30,64.6705 30,65.5 C30,66.3295 29.3904545,67 28.6363636,67 Z" id="Shape" fill="#4FBA6F"></path>
                        <path d="M35.75,67 L33.25,67 C32.55875,67 32,66.3295 32,65.5 C32,64.6705 32.55875,64 33.25,64 L35.75,64 C36.44125,64 37,64.6705 37,65.5 C37,66.3295 36.44125,67 35.75,67 Z" id="Shape" fill="#5A9BCC"></path>
                        <path d="M50.5555556,67 L40.4444444,67 C39.6456667,67 39,66.3295 39,65.5 C39,64.6705 39.6456667,64 40.4444444,64 L50.5555556,64 C51.3543333,64 52,64.6705 52,65.5 C52,66.3295 51.3543333,67 50.5555556,67 Z" id="Shape" fill="#8C191B"></path>
                        <path d="M58.3333333,67 L56.6666667,67 C55.745,67 55,66.3295 55,65.5 C55,64.6705 55.745,64 56.6666667,64 L58.3333333,64 C59.255,64 60,64.6705 60,65.5 C60,66.3295 59.255,67 58.3333333,67 Z" id="Shape" fill="#EEDE4B"></path>
                    </g>
                </g>
            </g>
        </g>
    </g>
</svg>