<?xml version="1.0" encoding="UTF-8"?>
<svg width="56px" height="79px" viewBox="0 0 56 79" version="1.1" xmlns="http://www.w3.org/2000/svg" xmlns:xlink="http://www.w3.org/1999/xlink">
    <!-- Generator: sketchtool 50.2 (55047) - http://www.bohemiancoding.com/sketch -->
    <title>6F547D4B-2F2D-464D-884A-6CEB5C37BB0B</title>
    <desc>Created with sketchtool.</desc>
    <defs></defs>
    <g id="bsbv" stroke="none" stroke-width="1" fill="none" fill-rule="evenodd">
        <g id="Agenturen-" transform="translate(-510.000000, -1823.000000)" fill-rule="nonzero">
            <g id="steps" transform="translate(383.000000, 1823.000000)">
                <g id="01">
                    <g id="clipboard" transform="translate(127.000000, 0.000000)">
                        <path d="M54.9829739,79 L0.995838063,79 C0.444948922,79 0,78.5576286 0,78.0099308 L0,9.99006921 C0,9.44237135 0.444948922,9 0.995838063,9 L55.0041619,9 C55.5550511,9 56,9.44237135 56,9.99006921 L56,78.0309961 C55.978812,78.5576286 55.533863,79 54.9829739,79 Z" id="Shape" fill="#324A5E"></path>
                        <polygon id="Shape" fill="#FFFFFF" points="5 12 5 68 41.3279925 68 41.3279925 60.1369863 49 60.1369863 49 12"></polygon>
                        <polygon id="Shape" fill="#E6E9EE" points="43 67 50 60 43 60"></polygon>
                        <path d="M32.0069505,6.3592645 L32.0069505,4.70721358 C32.0069505,2.10466761 29.9869679,0 27.4891399,0 C24.9913119,0 22.9713293,2.10466761 22.9713293,4.70721358 L22.9713293,6.3592645 L15,6.3592645 L15,16 L40,16 L40,6.3592645 L32.0069505,6.3592645 Z" id="Shape" fill="#FF7058"></path>
                        <circle id="Oval" fill="#90DFAA" cx="27" cy="3" r="2"></circle>
                        <path d="M37,53 L11,53 L11,27 L37,27 L37,53 Z M13.5670886,50.4548523 L34.4548523,50.4548523 L34.4548523,29.5670886 L13.5670886,29.5670886 L13.5670886,50.4548523 Z" id="Shape" fill="#E6E9EE"></path>
                        <polygon id="Shape" fill="#54C0EB" points="26.1896956 48 17 38.4495238 21.3419204 33.9371429 26.1896956 38.9752381 39.6580796 25 44 29.512381"></polygon>
                    </g>
                </g>
            </g>
        </g>
    </g>
</svg>