<?xml version="1.0" encoding="UTF-8"?>
<svg width="80px" height="58px" viewBox="0 0 80 58" version="1.1" xmlns="http://www.w3.org/2000/svg" xmlns:xlink="http://www.w3.org/1999/xlink">
    <!-- Generator: sketchtool 50.2 (55047) - http://www.bohemiancoding.com/sketch -->
    <title>E6788415-B0AE-4A97-8FD1-C3DD7DBC1B4B</title>
    <desc>Created with sketchtool.</desc>
    <defs></defs>
    <g id="bsbv" stroke="none" stroke-width="1" fill="none" fill-rule="evenodd">
        <g id="Outsourcing" transform="translate(-336.000000, -1021.000000)" fill-rule="nonzero">
            <g id="Group-6" transform="translate(244.000000, 1017.000000)">
                <g id="01" transform="translate(0.000000, 4.000000)">
                    <g id="credit-card" transform="translate(92.000000, 0.000000)">
                        <path d="M75.5627586,57.6470588 L4.43724138,57.6470588 C1.98482759,57.6470588 0,55.6705882 0,53.2315686 L0,4.4154902 C0,1.97647059 1.98482759,0 4.43724138,0 L75.5627586,0 C78.0137931,0 80,1.97647059 80,4.4154902 L80,53.2315686 C80,55.6705882 78.0137931,57.6470588 75.5627586,57.6470588" id="XMLID_128_" fill="#CCB375"></path>
                        <path d="M20.9625668,38.8235294 L8.44919786,38.8235294 C7.68032086,38.8235294 7.05882353,39.3505882 7.05882353,40 C7.05882353,40.6494118 7.68032086,41.1764706 8.44919786,41.1764706 L20.9625668,41.1764706 C21.7314439,41.1764706 22.3529412,40.6494118 22.3529412,40 C22.3529412,39.3505882 21.7314439,38.8235294 20.9625668,38.8235294" id="XMLID_127_" fill="#7A693C"></path>
                        <path d="M40,40 C40,39.3505882 39.3785027,38.8235294 38.6096257,38.8235294 L26.0962567,38.8235294 C25.3273797,38.8235294 24.7058824,39.3505882 24.7058824,40 C24.7058824,40.6494118 25.3273797,41.1764706 26.0962567,41.1764706 L38.6096257,41.1764706 C39.3785027,41.1764706 40,40.6494118 40,40" id="XMLID_126_" fill="#7A693C"></path>
                        <path d="M10.1960784,45.8823529 L8.62745098,45.8823529 C7.76,45.8823529 7.05882353,46.4094118 7.05882353,47.0588235 C7.05882353,47.7082353 7.76,48.2352941 8.62745098,48.2352941 L10.1960784,48.2352941 C11.0635294,48.2352941 11.7647059,47.7082353 11.7647059,47.0588235 C11.7647059,46.4094118 11.0635294,45.8823529 10.1960784,45.8823529" id="XMLID_125_" fill="#7A693C"></path>
                        <path d="M18.5294118,45.8823529 L15.5882353,45.8823529 C14.775,45.8823529 14.1176471,46.4094118 14.1176471,47.0588235 C14.1176471,47.7082353 14.775,48.2352941 15.5882353,48.2352941 L18.5294118,48.2352941 C19.3426471,48.2352941 20,47.7082353 20,47.0588235 C20,46.4094118 19.3426471,45.8823529 18.5294118,45.8823529" id="XMLID_124_" fill="#7A693C"></path>
                        <path d="M25.4901961,45.8823529 L23.9215686,45.8823529 C23.0541176,45.8823529 22.3529412,46.4094118 22.3529412,47.0588235 C22.3529412,47.7082353 23.0541176,48.2352941 23.9215686,48.2352941 L25.4901961,48.2352941 C26.3576471,48.2352941 27.0588235,47.7082353 27.0588235,47.0588235 C27.0588235,46.4094118 26.3576471,45.8823529 25.4901961,45.8823529" id="XMLID_123_" fill="#7A693C"></path>
                        <path d="M33.8235294,45.8823529 L30.8823529,45.8823529 C30.0691176,45.8823529 29.4117647,46.4094118 29.4117647,47.0588235 C29.4117647,47.7082353 30.0691176,48.2352941 30.8823529,48.2352941 L33.8235294,48.2352941 C34.6367647,48.2352941 35.2941176,47.7082353 35.2941176,47.0588235 C35.2941176,46.4094118 34.6367647,45.8823529 33.8235294,45.8823529" id="XMLID_122_" fill="#7A693C"></path>
                        <path d="M37.9882353,46.2108768 C37.7752941,46.4358121 37.6470588,46.7436182 37.6470588,47.0514243 C37.6470588,47.3592305 37.7752941,47.6670366 37.9882353,47.8919719 C38.2105882,48.1050684 38.5176471,48.2352941 38.8235294,48.2352941 C39.1294118,48.2352941 39.4341176,48.1050684 39.6588235,47.8919719 C39.8705882,47.6670366 40,47.3592305 40,47.0514243 C40,46.7436182 39.8705882,46.4358121 39.6588235,46.2108768 C39.2117647,45.772845 38.4094118,45.772845 37.9882353,46.2108768" id="XMLID_121_" fill="#7A693C"></path>
                        <path d="M63.5294118,42.3529412 C63.5294118,46.9015686 59.8427451,50.5882353 55.2941176,50.5882353 C50.7454902,50.5882353 47.0588235,46.9015686 47.0588235,42.3529412 C47.0588235,37.8043137 50.7454902,34.1176471 55.2941176,34.1176471 C59.8427451,34.1176471 63.5294118,37.8043137 63.5294118,42.3529412" id="XMLID_120_" fill="#E74C3D"></path>
                        <path d="M72.9411765,42.3529412 C72.9411765,46.9015686 69.2545098,50.5882353 64.7058824,50.5882353 C60.1572549,50.5882353 56.4705882,46.9015686 56.4705882,42.3529412 C56.4705882,37.8043137 60.1572549,34.1176471 64.7058824,34.1176471 C69.2545098,34.1176471 72.9411765,37.8043137 72.9411765,42.3529412" id="XMLID_119_" fill="#F0C41B"></path>
                        <path d="M28.8349265,27.0588235 L9.98860294,27.0588235 C9.02183824,27.0588235 8.23529412,26.287451 8.23529412,25.3362745 L8.23529412,12.3107843 C8.23529412,11.3596078 9.02183824,10.5882353 9.98860294,10.5882353 L28.8349265,10.5882353 C29.8030882,10.5882353 30.5882353,11.3596078 30.5882353,12.3107843 L30.5882353,25.3362745 C30.5882353,26.287451 29.8030882,27.0588235 28.8349265,27.0588235" id="XMLID_118_" fill="#F0C41B"></path>
                        <path d="M28.6696078,28.2352941 L10.1539216,28.2352941 C8.44784314,28.2352941 7.05882353,26.8746218 7.05882353,25.2033613 L7.05882353,12.4436975 C7.05882353,10.772437 8.44784314,9.41176471 10.1539216,9.41176471 L28.6696078,9.41176471 C30.3756863,9.41176471 31.7647059,10.772437 31.7647059,12.4436975 L31.7647059,25.2033613 C31.7647059,26.8746218 30.3756863,28.2352941 28.6696078,28.2352941 Z M10.1539216,12.1008403 C9.95901961,12.1008403 9.80392157,12.2541176 9.80392157,12.4436975 L9.80392157,25.2033613 C9.80392157,25.3929412 9.95901961,25.5462185 10.1539216,25.5462185 L28.6696078,25.5462185 C28.8631373,25.5462185 29.0196078,25.3929412 29.0196078,25.2033613 L29.0196078,12.4436975 C29.0196078,12.2541176 28.8631373,12.1008403 28.6696078,12.1008403 L10.1539216,12.1008403 Z" id="XMLID_115_" fill="#F3D55C"></path>
                        <path d="M30.5882353,12.3107843 C30.5882353,11.3596078 29.7948235,10.5882353 28.8164706,10.5882353 L22.1176471,10.5882353 L18.2423529,10.5882353 C17.2625882,10.5882353 16.4705882,11.3596078 16.4705882,12.3107843 L16.4705882,16.0784314 L16.4705882,25.3362745 C16.4705882,26.287451 17.2625882,27.0588235 18.2423529,27.0588235 L20.3458824,27.0588235 C21.3242353,27.0588235 22.1176471,26.287451 22.1176471,25.3362745 L22.1176471,17.8009804 C22.1176471,16.8498039 22.9110588,16.0784314 23.8894118,16.0784314 L28.8164706,16.0784314 C29.7948235,16.0784314 30.5882353,15.3070588 30.5882353,14.3558824 L30.5882353,12.3107843 Z" id="XMLID_114_" fill="#F0C41B"></path>
                        <path d="M20.4343137,28.2352941 L18.3892157,28.2352941 C16.6831373,28.2352941 15.2941176,26.8746218 15.2941176,25.2033613 L15.2941176,12.4436975 C15.2941176,10.772437 16.6831373,9.41176471 18.3892157,9.41176471 L28.6696078,9.41176471 C30.3756863,9.41176471 31.7647059,10.772437 31.7647059,12.4436975 L31.7647059,14.4470588 C31.7647059,16.1183193 30.3756863,17.4789916 28.6696078,17.4789916 L23.8794118,17.4789916 C23.6845098,17.4789916 23.5294118,17.6322689 23.5294118,17.8218487 L23.5294118,25.2033613 C23.5294118,26.8746218 22.1403922,28.2352941 20.4343137,28.2352941 Z M18.3892157,12.1008403 C18.1943137,12.1008403 18.0392157,12.2541176 18.0392157,12.4436975 L18.0392157,25.2033613 C18.0392157,25.3929412 18.1943137,25.5462185 18.3892157,25.5462185 L20.4343137,25.5462185 C20.6278431,25.5462185 20.7843137,25.3929412 20.7843137,25.2033613 L20.7843137,17.8218487 C20.7843137,16.1505882 22.1733333,14.789916 23.8794118,14.789916 L28.6696078,14.789916 C28.8631373,14.789916 29.0196078,14.6366387 29.0196078,14.4470588 L29.0196078,12.4436975 C29.0196078,12.2541176 28.8631373,12.1008403 28.6696078,12.1008403 L18.3892157,12.1008403 Z" id="XMLID_111_" fill="#F3D55C"></path>
                        <path d="M22.3529412,22.3529412 L30.5882353,22.3529412" id="XMLID_110_" fill="#F0C41B"></path>
                        <path d="M30.4411765,22.3529412 L22.5,22.3529412 C21.7680882,22.3529412 21.1764706,21.8258824 21.1764706,21.1764706 C21.1764706,20.5270588 21.7680882,20 22.5,20 L30.4411765,20 C31.1730882,20 31.7647059,20.5270588 31.7647059,21.1764706 C31.7647059,21.8258824 31.1730882,22.3529412 30.4411765,22.3529412" id="XMLID_109_" fill="#F3D55C"></path>
                        <path d="M16.4705882,16.4705882 L8.23529412,16.4705882" id="XMLID_108_" fill="#F0C41B"></path>
                        <path d="M16.3235294,17.6470588 L8.38235294,17.6470588 C7.65044118,17.6470588 7.05882353,17.12 7.05882353,16.4705882 C7.05882353,15.8211765 7.65044118,15.2941176 8.38235294,15.2941176 L16.3235294,15.2941176 C17.0554412,15.2941176 17.6470588,15.8211765 17.6470588,16.4705882 C17.6470588,17.12 17.0554412,17.6470588 16.3235294,17.6470588" id="XMLID_107_" fill="#F3D55C"></path>
                        <path d="M16.4705882,22.3529412 L8.23529412,22.3529412" id="XMLID_106_" fill="#F0C41B"></path>
                        <path d="M16.3235294,22.3529412 L8.38235294,22.3529412 C7.65044118,22.3529412 7.05882353,21.8258824 7.05882353,21.1764706 C7.05882353,20.5270588 7.65044118,20 8.38235294,20 L16.3235294,20 C17.0554412,20 17.6470588,20.5270588 17.6470588,21.1764706 C17.6470588,21.8258824 17.0554412,22.3529412 16.3235294,22.3529412" id="XMLID_105_" fill="#F3D55C"></path>
                    </g>
                </g>
            </g>
        </g>
    </g>
</svg>