<?xml version="1.0" encoding="UTF-8"?>
<svg width="79px" height="79px" viewBox="0 0 79 79" version="1.1" xmlns="http://www.w3.org/2000/svg" xmlns:xlink="http://www.w3.org/1999/xlink">
    <!-- Generator: sketchtool 50.2 (55047) - http://www.bohemiancoding.com/sketch -->
    <title>11059BF3-6651-479C-9369-9FFC85FDD3B8</title>
    <desc>Created with sketchtool.</desc>
    <defs></defs>
    <g id="bsbv" stroke="none" stroke-width="1" fill="none" fill-rule="evenodd">
        <g id="Agenturen-" transform="translate(-509.000000, -2664.000000)" fill-rule="nonzero">
            <g id="steps" transform="translate(383.000000, 1823.000000)">
                <g id="04" transform="translate(11.000000, 841.000000)">
                    <g id="Group-4">
                        <g id="goal-(1)" transform="translate(115.000000, 0.000000)">
                            <path d="M79,17 L78.9999997,73.6087485 C79.0004626,75.0387813 78.4264782,76.4101837 77.4047243,77.4214059 C76.3828161,78.4324755 74.9969216,79.0004578 73.5517771,78.9999997 L5.4482229,78.9999997 C4.00307838,79.0004578 2.61718385,78.4324755 1.59527566,77.4214059 C0.57352176,76.4101837 -0.000462610865,75.0386286 2.79756848e-07,73.6087485 L0,17 L79,17 Z" id="Shape" fill="#F7F7F7"></path>
                            <path d="M78.9999997,11.3332999 L79,18 L0,18 L2.79756848e-07,11.3332999 C-0.000462610865,9.91878983 0.57352176,8.56197786 1.59527566,7.56162545 C2.61718385,6.56127304 4.00307838,5.99954715 5.4482229,6.00000027 L73.5517771,6.00000027 C74.9969216,5.99954715 76.3828161,6.56142409 77.4047243,7.56162545 C78.4264782,8.56197786 79.0004626,9.91878983 78.9999997,11.3332999 Z" id="Shape" fill="#3D434F"></path>
                            <g id="Group" transform="translate(11.000000, 0.000000)" fill="#95A5A5">
                                <path d="M2.85,0 C4.42407816,0 5.7,1.25352304 5.7,2.79996828 L5.7,11.2000317 C5.7,12.746477 4.42407816,14 2.85,14 C1.27592184,14 0,12.746477 0,11.2000317 L0,2.79996828 C0,1.25352304 1.27592184,0 2.85,0 Z" id="Shape"></path>
                                <path d="M54.15,0 C55.7240782,0 57,1.25352304 57,2.79996828 L57,11.2000317 C57,12.746477 55.7240782,14 54.15,14 C52.5759218,14 51.3,12.746477 51.3,11.2000317 L51.3,2.79996828 C51.3,1.25352304 52.5759218,0 54.15,0 Z" id="Shape"></path>
                            </g>
                            <circle id="Oval" fill="#8C191B" cx="40" cy="49" r="22"></circle>
                            <circle id="Oval" fill="#E6E7E8" cx="39" cy="49" r="15"></circle>
                            <circle id="Oval" fill="#8C191B" cx="40.5" cy="49.5" r="8.5"></circle>
                            <path d="M68.608634,50 L39.391366,50 C38.6230256,50 38,49.3285002 38,48.5 C38,47.6714998 38.622868,47 39.391366,47 L68.608634,47 C69.3769744,47 70,47.6714998 70,48.5 C70,49.3285002 69.377132,50 68.608634,50 Z" id="Shape" fill="#5A9BCC"></path>
                            <path d="M70.3488526,49.003089 L72.4559008,47.446994 C72.817475,47.1848528 73.0242835,46.72803 72.9977172,46.2502299 C72.9711509,45.7724298 72.7151607,45.3472994 72.3272927,45.1363188 C71.9394247,44.9253382 71.4792146,44.9612562 71.1217276,45.2301886 L67.5216532,47.8887251 L67.5148413,47.8937054 L67.5136152,47.8944599 C67.4776485,47.9211721 67.458439,47.9620703 67.4258782,47.9921026 C67.3321469,48.068617 67.2493145,48.1602231 67.1801059,48.2640533 L67.1794247,48.2660152 C67.0919603,48.411951 67.0314708,48.5756949 67.0012261,48.7477391 C66.9995913,48.9179724 66.9995913,49.0882056 67.0012261,49.2584389 C67.0314708,49.4304832 67.0919603,49.5940761 67.1794247,49.7401628 L67.1801059,49.7421248 C67.2611672,49.8720634 67.3629365,49.9846468 67.480237,50.0744418 C67.493452,50.0850059 67.4998552,50.1016067 67.5137514,50.1117181 L71.1217276,52.7761404 C71.6744429,53.1842173 72.4210241,53.0188133 72.7895463,52.406698 C73.1579324,51.7944317 73.0086161,50.9674119 72.4560371,50.5591841 L70.3488526,49.003089 Z" id="Shape" fill="#CC4B4C"></path>
                        </g>
                    </g>
                </g>
            </g>
        </g>
    </g>
</svg>