<?xml version="1.0" encoding="UTF-8"?>
<svg width="51px" height="62px" viewBox="0 0 51 62" version="1.1" xmlns="http://www.w3.org/2000/svg" xmlns:xlink="http://www.w3.org/1999/xlink">
    <!-- Generator: sketchtool 50.2 (55047) - http://www.bohemiancoding.com/sketch -->
    <title>F46B86ED-650A-456F-8A0F-6857DA359E89</title>
    <desc>Created with sketchtool.</desc>
    <defs></defs>
    <g id="bsbv" stroke="none" stroke-width="1" fill="none" fill-rule="evenodd">
        <g id="Outsourcing" transform="translate(-771.000000, -1019.000000)" fill-rule="nonzero">
            <g id="Group-6" transform="translate(244.000000, 1017.000000)">
                <g id="02" transform="translate(420.000000, 2.000000)">
                    <g id="hourglass" transform="translate(107.000000, 0.000000)">
                        <path d="M37.59414,22.53792 C39.5964,21.20172 40.8,18.95364 40.8,16.54644 L40.8,5.1 L10.2,5.1 L10.2,16.54644 C10.2,18.95364 11.4036,21.20172 13.40586,22.53792 L23.46,29.24034 L23.46,31.96068 L13.40586,38.6631 C11.4036,39.99828 10.2,42.24636 10.2,44.65356 L10.2,56.1 L40.8,56.1 L40.8,44.65356 C40.8,42.24636 39.5964,39.99828 37.59414,38.66208 L27.54,31.95966 L27.54,29.23932 L37.59414,22.53792 Z" id="Shape" fill="#7383BF"></path>
                        <path d="M35.1491167,20.363728 C36.2916816,19.6015561 36.9739907,18.3265586 36.9739907,16.9546492 C36.9739907,15.6362432 36.0766937,14.4864236 34.7978688,14.1664123 L19.60438,10.3676668 C16.1231907,9.496469 12.75,12.1302524 12.75,15.7200316 L12.75,16.9546492 C12.75,18.3265586 13.4323091,19.6015561 14.574874,20.363728 L23.8526624,27.1738097 L23.8526624,43.2016286 C23.8526624,46.8661107 20.0535332,49.2949658 16.7287905,47.7554795 C14.9382338,46.9266807 12.7701867,48.1532222 12.7510093,50.1267932 C12.7510093,50.1409262 12.7510093,50.1540497 12.7510093,50.1681826 L12.7510093,56.1 L36.975,56.1 L36.975,44.7703904 C36.975,44.7562574 36.975,44.7431339 36.975,44.7290009 C36.9558227,42.7796579 35.0683701,41.3754445 33.1486188,41.7095888 L31.0804956,42.06998 C28.3603433,42.5434351 25.8713283,40.4497338 25.8713283,37.6897629 L25.8713283,27.1738097 L35.1491167,20.363728 Z" id="Shape" fill="#424A60"></path>
                        <rect id="Rectangle-path" fill="#424A60" x="5.1" y="56.1" width="40.8" height="3.825"></rect>
                        <path d="M49.98,59.075 L46.92,59.075 L46.92,54.825 L4.08,54.825 L4.08,59.075 L1.02,59.075 C0.45696,59.075 0,59.5499375 0,60.1375 C0,60.7250625 0.45696,61.2 1.02,61.2 L4.08,61.2 L5.1,61.2 L45.9,61.2 L46.92,61.2 L49.98,61.2 C50.54304,61.2 51,60.7250625 51,60.1375 C51,59.5499375 50.54304,59.075 49.98,59.075 Z M6.12,56.95 L44.88,56.95 L44.88,59.075 L6.12,59.075 L6.12,56.95 Z" id="Shape" fill="#556080"></path>
                        <rect id="Rectangle-path" fill="#424A60" x="5.1" y="1.275" width="40.8" height="3.825"></rect>
                        <path d="M49.98,0 L46.92,0 L45.9,0 L5.1,0 L4.08,0 L1.02,0 C0.45696,0 0,0.4749375 0,1.0625 C0,1.6500625 0.45696,2.125 1.02,2.125 L4.08,2.125 L4.08,6.375 L46.92,6.375 L46.92,2.125 L49.98,2.125 C50.54304,2.125 51,1.6500625 51,1.0625 C51,0.4749375 50.54304,0 49.98,0 Z M44.88,4.25 L6.12,4.25 L6.12,2.125 L44.88,2.125 L44.88,4.25 Z" id="Shape" fill="#556080"></path>
                        <path d="M19.4429006,24.225 C19.2612102,24.225 19.076651,24.1681034 18.9131297,24.0512069 L14.4779713,20.8525862 C13.3964353,20.0725862 12.75,18.767069 12.75,17.3581034 L12.75,15.0594828 C12.75,14.4874138 13.1784068,14.025 13.7062653,14.025 C14.2341237,14.025 14.6625305,14.4874138 14.6625305,15.0594828 L14.6625305,17.3581034 C14.6625305,18.0718966 14.9905295,18.735 15.5394258,19.1312069 L19.9745841,22.3298276 C20.4135099,22.6474138 20.5320868,23.2887931 20.2394696,23.7646552 C20.0549104,24.0636207 19.7517743,24.225 19.4429006,24.225 Z" id="Shape" fill="#7FABDA"></path>
                        <path d="M36.0187347,47.175 C35.4908763,47.175 35.0624695,46.7126131 35.0624695,46.1405773 L35.0624695,43.8420901 C35.0624695,43.1283384 34.7344705,42.4652735 34.1855742,42.0690896 L29.7504159,38.8706546 C29.3114901,38.5530868 29.1929132,37.9117447 29.4855304,37.4359103 C29.7791039,36.9600759 30.3710321,36.8318074 30.8118703,37.1493752 L35.2470287,40.3478102 C36.3285647,41.1277649 36.975,42.4342408 36.975,43.8420901 L36.975,46.1405773 C36.975,46.7126131 36.5465932,47.175 36.0187347,47.175 Z" id="Shape" fill="#7FABDA"></path>
                    </g>
                </g>
            </g>
        </g>
    </g>
</svg>