<?xml version="1.0" encoding="UTF-8"?>
<svg width="67px" height="66px" viewBox="0 0 67 66" version="1.1" xmlns="http://www.w3.org/2000/svg" xmlns:xlink="http://www.w3.org/1999/xlink">
    <!-- Generator: sketchtool 50.2 (55047) - http://www.bohemiancoding.com/sketch -->
    <title>B52106D3-0932-47EF-A24A-95049F19215E</title>
    <desc>Created with sketchtool.</desc>
    <defs></defs>
    <g id="bsbv" stroke="none" stroke-width="1" fill="none" fill-rule="evenodd">
        <g id="Outsourcing" transform="translate(-1164.000000, -1017.000000)">
            <g id="Group-6" transform="translate(244.000000, 1017.000000)">
                <g id="03" transform="translate(840.000000, 0.000000)">
                    <g id="skills-copy" transform="translate(80.000000, 0.000000)">
                        <g>
                            <path d="M28.9623079,17.2367842 C27.4358071,20.6315718 24.9816334,22.556962 24.9816334,22.556962 L5.06073267,22.556962 C5.06073267,22.556962 2.09236228,21.1987054 0.702553292,17.5032069 C-0.116027851,15.3261076 -0.387841788,12.3367344 0.818054594,8.33724077 C4.07118867,-2.45012039 25.8620855,-2.61525518 29.2780725,6.9479803 C30.7655933,11.1140538 30.1406043,14.6134137 28.9623079,17.2367842 Z" id="Shape" fill="#3D434F" fill-rule="nonzero"></path>
                            <g id="Group" transform="translate(0.837500, 15.873418)" fill="#3D434F" fill-rule="nonzero">
                                <path d="M28.3982356,1.13579334 C26.8668842,4.66047636 24.4049121,6.6595381 24.4049121,6.6595381 L18.6435142,6.6595381 C18.6435142,3.03310152 21.4809101,0.0837489021 24.9696881,0.0837489021 C26.2319048,0.0836125032 27.408959,0.470576079 28.3982356,1.13579334 Z" id="Shape"></path>
                                <path d="M10.1819776,6.6594017 L4.42071094,6.6594017 C4.42071094,6.6594017 1.44290829,5.24917386 0.0486830645,1.41227383 C1.10829424,0.579013175 2.42732972,0.0834761044 3.85580369,0.0834761044 C7.34458168,0.0836125032 10.1819776,3.03296513 10.1819776,6.6594017 Z" id="Shape"></path>
                            </g>
                            <path d="M28.475,49.6072865 L28.475,66 L2.5125,66 L2.5125,49.6072865 C2.5125,46.9789681 3.31069544,44.532562 4.68047177,42.4963225 C7.007022,39.0397337 10.9818309,36.7594937 15.4951081,36.7594937 C19.0782568,36.7594937 22.3241998,38.1982775 24.6733856,40.5220433 C25.2823476,41.1234675 25.8312929,41.7867239 26.3070282,42.4988828 C27.6768046,44.5338421 28.475,46.9788401 28.475,49.6072865 Z" id="Shape" fill="#F7F7F7" fill-rule="nonzero"></path>
                            <g id="Group" transform="translate(4.187500, 36.759494)" fill="#A5C6E3" fill-rule="nonzero">
                                <path d="M12.3114295,4.51210381 L12.3114295,29.2248007 L10.2314833,29.2248007 L10.2314833,4.51210381 C10.2314833,3.96751534 10.6973277,3.52558786 11.2713891,3.52558786 C11.845585,3.52558786 12.3114295,3.96751534 12.3114295,4.51210381 Z" id="Shape"></path>
                                <path d="M22.5919065,5.78361893 L17.4441978,10.3731015 C16.6637973,11.0688724 15.4463565,11.0577635 14.6811656,10.3492239 L11.3403033,7.25624233 L7.99957567,10.3492239 C7.23425022,11.0577635 6.0151942,11.0688724 5.23654353,10.3731015 L0.0872196429,5.78195899 C2.50864152,2.33311149 6.64484464,0.0597578907 11.3404379,0.0597578907 C15.0697507,0.0597578907 18.4473583,1.49433033 20.8923348,3.81211929 C21.5252156,4.4127627 22.0961813,5.07354707 22.5919065,5.78361893 Z" id="Shape"></path>
                            </g>
                            <path d="M25.9625,40.3687923 L21.4410073,44.1452864 C21.2254108,44.3253521 20.8884743,44.322492 20.6767661,44.1388512 L16.331183,40.3687923 L11.9855999,44.1388512 C11.7738916,44.322492 11.4369551,44.3253521 11.2213586,44.1452864 L6.7,40.3687923 C9.14222012,38.141507 12.5559652,36.7594937 16.331317,36.7594937 C20.0470044,36.7594937 23.4115431,38.0976524 25.8455845,40.2628503 C25.8844669,40.2976479 25.9234835,40.3323264 25.9625,40.3687923 Z" id="Shape" fill="#5A9BCC" fill-rule="nonzero"></path>
                            <path d="M15.9125754,40.1012658 C14.0624078,40.1012658 12.5625,38.8657305 12.5625,37.3416718 L12.5625,32.5822785 L19.2625,32.5822785 L19.2625,37.3416718 C19.2626507,38.8657305 17.7627429,40.1012658 15.9125754,40.1012658 Z" id="Shape" fill="#FCCE99" fill-rule="nonzero"></path>
                            <path d="M24.8961253,55.1392405 L19.4913747,55.1392405 C18.9022876,55.1392405 18.425,54.5781874 18.425,53.8860759 C18.425,53.1939645 18.9024256,52.6329114 19.4913747,52.6329114 L24.8961253,52.6329114 C25.4852124,52.6329114 25.9625,53.1939645 25.9625,53.8860759 C25.9625,54.5781874 25.4850744,55.1392405 24.8961253,55.1392405 Z" id="Shape" fill="#5A9BCC" fill-rule="nonzero"></path>
                            <g id="Group" transform="translate(0.837500, 18.379747)" fill="#FCCE99" fill-rule="nonzero">
                                <ellipse id="Oval" cx="24.6469808" cy="3.73681139" rx="3.80791923" ry="3.70360253"></ellipse>
                                <ellipse id="Oval" cx="3.91434615" cy="3.73681139" rx="3.80791923" ry="3.70360253"></ellipse>
                            </g>
                            <path d="M25.9625,11.6962025 L25.4439187,17.6671669 L24.7452144,25.7053836 C24.3259647,30.5373373 20.1218296,34.2531646 15.074188,34.2531646 C10.0281704,34.2531646 5.82403529,30.5373373 5.40478562,25.7053836 L4.67238431,17.2772248 L4.1875,11.6962025 L25.9625,11.6962025 Z" id="Shape" fill="#FEE6CC" fill-rule="nonzero"></path>
                            <path d="M25.9625,11.6963378 L25.4439187,17.9100734 C23.7804529,18.223189 22.0916806,18.3797468 20.3811203,18.3797468 C14.7508867,18.3797468 10.2469976,16.6676239 7.88482744,15.5346432 C7.10357232,16.1827953 6.03271283,16.9167363 4.67238431,17.5042679 L4.1875,11.6962025 L25.9625,11.6962025 L25.9625,11.6963378 Z" id="Shape" fill="#FCCE99" fill-rule="nonzero"></path>
                            <path d="M23.7040554,8.35443038 C26.9616835,10.9875036 32.6625,12.2521905 32.6625,12.2521905 C19.4691257,20.3498528 7.74176921,12.3375572 7.74176921,12.3375572 C7.74176921,12.3375572 6.24132006,14.4247033 3.35,15.4910875 L3.35,8.35443038 L23.7040554,8.35443038 Z" id="Shape" fill="#3D434F" fill-rule="nonzero"></path>
                            <path d="M20.1991107,15.8734177 C18.2785277,15.8735385 16.5501972,15.6703698 15.0868773,15.393838 C11.7154029,14.7570172 9.22052219,13.6598337 8.05160112,13.0737748 C7.31392117,13.7520512 5.90057403,14.8352147 3.83926477,15.4992295 C3.31636387,15.6674691 2.74750362,15.4084623 2.56742064,14.9210266 C2.38733767,14.4334701 2.66464733,13.901799 3.18677145,13.7336802 C5.73266057,12.9136329 7.04981673,11.3396496 7.06289249,11.3238167 C7.37929996,10.9398387 7.95748155,10.8452039 8.39480743,11.1060237 C8.42160626,11.1219775 11.2457113,12.7759713 15.561618,13.5778894 C20.4641214,14.4884622 25.2143763,13.9912368 29.7168392,12.1001121 C27.7260872,11.5335119 24.9935125,10.5783411 23.0375861,9.19773665 C22.5970237,8.88675922 22.5098951,8.30094204 22.8430033,7.88964932 C23.175982,7.47835659 23.8032301,7.39689573 24.2441809,7.70799402 C27.2510876,9.83068993 32.6489163,10.8942738 32.7030318,10.9047888 C33.1098045,10.9835907 33.4219397,11.2890085 33.4874479,11.6718987 C33.5529562,12.0549098 33.357985,12.4358662 32.9976895,12.6290033 C28.3722369,15.1083624 23.9247958,15.8734177 20.1991107,15.8734177 Z" id="Shape" fill="#585858" fill-rule="nonzero"></path>
                            <g id="Group" transform="translate(33.500000, 51.797468)" fill="#5A9BCC" fill-rule="nonzero">
                                <path d="M0.98932797,4.10691863 C0.458469059,4.10691863 0.0283589109,3.69409042 0.0283589109,3.18482821 L0.0283589109,0.981884268 C0.0283589109,0.472502712 0.458593441,0.0597938517 0.98932797,0.0597938517 C1.52018688,0.0597938517 1.95029703,0.472622061 1.95029703,0.981884268 L1.95029703,3.18482821 C1.95029703,3.69409042 1.5200625,4.10691863 0.98932797,4.10691863 Z" id="Shape"></path>
                                <path d="M4.52324629,4.10691863 C3.99238738,4.10691863 3.56227723,3.69409042 3.56227723,3.18482821 L3.56227723,0.981884268 C3.56227723,0.472502712 3.99251176,0.0597938517 4.52324629,0.0597938517 C5.0541052,0.0597938517 5.48421535,0.472622061 5.48421535,0.981884268 L5.48421535,3.18482821 C5.48433973,3.69409042 5.0541052,4.10691863 4.52324629,4.10691863 Z" id="Shape"></path>
                                <path d="M8.05728899,4.10691863 C7.52643007,4.10691863 7.09631993,3.69409042 7.09631993,3.18482821 L7.09631993,0.981884268 C7.09631993,0.472502712 7.52655446,0.0597938517 8.05728899,0.0597938517 C8.5881479,0.0597938517 9.01825804,0.472622061 9.01825804,0.981884268 L9.01825804,3.18482821 C9.01825804,3.69409042 8.58802351,4.10691863 8.05728899,4.10691863 Z" id="Shape"></path>
                                <path d="M11.5912073,4.10691863 C11.0603484,4.10691863 10.6302382,3.69409042 10.6302382,3.18482821 L10.6302382,0.981884268 C10.6302382,0.472502712 11.0604728,0.0597938517 11.5912073,0.0597938517 C12.1220662,0.0597938517 12.5521764,0.472622061 12.5521764,0.981884268 L12.5521764,3.18482821 C12.5523007,3.69409042 12.1220662,4.10691863 11.5912073,4.10691863 Z" id="Shape"></path>
                            </g>
                            <path d="M65.9259529,23.3924051 L35.4116774,23.3924051 C34.8183446,23.3924051 34.3375,22.88457 34.3375,22.25824 L34.3375,17.0075828 C34.3375,16.3811152 34.8184749,15.8734177 35.4116774,15.8734177 L65.9258226,15.8734177 C66.5191554,15.8734177 67,16.3812528 67,17.0075828 L67,22.25824 C67.0001303,22.88457 66.5191554,23.3924051 65.9259529,23.3924051 Z" id="Shape" fill="#D2E3F1" fill-rule="nonzero"></path>
                            <path d="M42.7125,23.3924051 L35.3015111,23.3924051 C34.7690298,23.3924051 34.3375,22.88457 34.3375,22.25824 L34.3375,17.0075828 C34.3375,16.3811152 34.7691468,15.8734177 35.3015111,15.8734177 L42.7125,15.8734177 L42.7125,23.3924051 Z" id="Shape" fill="#8C191B" fill-rule="nonzero"></path>
                            <path d="M65.9259529,35.9240506 L35.4116774,35.9240506 C34.8183446,35.9240506 34.3375,35.4162155 34.3375,34.7898856 L34.3375,29.5392284 C34.3375,28.9127608 34.8184749,28.4050633 35.4116774,28.4050633 L65.9258226,28.4050633 C66.5191554,28.4050633 67,28.9128984 67,29.5392284 L67,34.7898856 C67.0001303,35.4162155 66.5191554,35.9240506 65.9259529,35.9240506 Z" id="Shape" fill="#D2E3F1" fill-rule="nonzero"></path>
                            <path d="M59.4625,35.9240506 L35.4417233,35.9240506 C34.8317944,35.9240506 34.3375,35.4162155 34.3375,34.7898856 L34.3375,29.5392284 C34.3375,28.9127608 34.8319284,28.4050633 35.4417233,28.4050633 L59.4625,28.4050633 L59.4625,35.9240506 Z" id="Shape" fill="#54C0EB" fill-rule="nonzero"></path>
                            <path d="M65.9259529,47.6202532 L35.4116774,47.6202532 C34.8183446,47.6202532 34.3375,47.1124181 34.3375,46.4860881 L34.3375,41.2354309 C34.3375,40.6089633 34.8184749,40.1012658 35.4116774,40.1012658 L65.9258226,40.1012658 C66.5191554,40.1012658 67,40.6091009 67,41.2354309 L67,46.4860881 C67.0001303,47.1124181 66.5191554,47.6202532 65.9259529,47.6202532 Z" id="Shape" fill="#D2E3F1" fill-rule="nonzero"></path>
                            <path d="M53.6,47.6202532 L35.4203184,47.6202532 C34.8222127,47.6202532 34.3375,47.1124181 34.3375,46.4860881 L34.3375,41.2354309 C34.3375,40.6089633 34.8223441,40.1012658 35.4203184,40.1012658 L53.6,40.1012658 L53.6,47.6202532 Z" id="Shape" fill="#EEDE4B" fill-rule="nonzero"></path>
                        </g>
                    </g>
                </g>
            </g>
        </g>
    </g>
</svg>