<?xml version="1.0" encoding="UTF-8"?>
<svg width="80px" height="80px" viewBox="0 0 80 80" version="1.1" xmlns="http://www.w3.org/2000/svg" xmlns:xlink="http://www.w3.org/1999/xlink">
    <!-- Generator: sketchtool 50.2 (55047) - http://www.bohemiancoding.com/sketch -->
    <title>CAF49458-787A-45AE-929E-6F737123C7C1</title>
    <desc>Created with sketchtool.</desc>
    <defs></defs>
    <g id="bsbv" stroke="none" stroke-width="1" fill="none" fill-rule="evenodd">
        <g id="Agenturen-" transform="translate(-498.000000, -2092.000000)" fill-rule="nonzero">
            <g id="steps" transform="translate(383.000000, 1823.000000)">
                <g id="02" transform="translate(14.000000, 269.333333)">
                    <g id="skills" transform="translate(101.000000, 0.000000)">
                        <path d="M34.5818602,20.6319083 C32.7591727,24.6953663 29.828816,27 29.828816,27 L6.04266587,27 C6.04266587,27 2.49834302,25.374208 0.838869602,20.9508082 C-0.138540718,18.3448864 -0.463094672,14.7666973 0.976781605,9.97942455 C4.8611208,-2.93271987 30.8801021,-3.1303812 34.9588926,8.31652188 C36.7350367,13.3031857 35.9887813,17.4918134 34.5818602,20.6319083 Z" id="Shape" fill="#3D434F"></path>
                        <g id="Group" transform="translate(1.000000, 19.000000)" fill="#3D434F">
                            <path d="M33.908341,1.3595102 C32.0798618,5.57844898 29.1401935,7.97126531 29.1401935,7.97126531 L22.2609124,7.97126531 C22.2609124,3.63053061 25.6488479,0.100244898 29.814553,0.100244898 C31.3216774,0.100081633 32.7271152,0.563265306 33.908341,1.3595102 Z" id="Shape"></path>
                            <path d="M12.1575853,7.97110204 L5.27846083,7.97110204 C5.27846083,7.97110204 1.72287558,6.28310204 0.0581290323,1.69044898 C1.32333641,0.693061224 2.89830415,0.0999183673 4.6039447,0.0999183673 C8.76964977,0.100081633 12.1575853,3.63036735 12.1575853,7.97110204 Z" id="Shape"></path>
                        </g>
                        <path d="M34,59.3784187 L34,79 L3,79 L3,59.3784187 C3,56.2324012 3.95306919,53.3041272 5.58862301,50.8668103 C8.36659343,46.7293782 13.112634,44 18.5016217,44 C22.7800081,44 26.655761,45.7221806 29.460759,48.5036579 C30.1878777,49.2235444 30.8433348,50.0174422 31.411377,50.8698749 C33.0469308,53.3056595 34,56.232248 34,59.3784187 Z" id="Shape" fill="#F7F7F7"></path>
                        <g id="Group" transform="translate(5.000000, 44.000000)" fill="#A5C6E3">
                            <path d="M14.7002143,5.40085153 L14.7002143,34.9812009 L12.2166964,34.9812009 L12.2166964,5.40085153 C12.2166964,4.74899563 12.7729286,4.22002183 13.458375,4.22002183 C14.1439821,4.22002183 14.7002143,4.74899563 14.7002143,5.40085153 Z" id="Shape"></path>
                            <path d="M26.9754107,6.92281659 L20.8288929,12.4162882 C19.8970714,13.2491048 18.4434107,13.2358079 17.52975,12.3877074 L13.5406607,8.68550218 L9.55173214,12.3877074 C8.63791071,13.2358079 7.18232143,13.2491048 6.25258929,12.4162882 L0.104142857,6.92082969 C2.99539286,2.79266376 7.93414286,0.0715283843 13.5408214,0.0715283843 C17.9937321,0.0715283843 22.0266964,1.78866812 24.9460714,4.56299127 C25.70175,5.28194323 26.3835,6.0728821 26.9754107,6.92281659 Z" id="Shape"></path>
                        </g>
                        <path d="M31,48.3202211 L25.6012028,52.8405701 C25.3437741,53.0561033 24.9414619,53.0526798 24.6886759,52.8328674 L19.49992,48.3202211 L14.311164,52.8328674 C14.0583781,53.0526798 13.6560658,53.0561033 13.3986371,52.8405701 L8,48.3202211 C10.9160837,45.654228 14.9921972,44 19.50008,44 C23.9367217,44 27.9540813,45.6017355 30.8603994,48.1934117 C30.9068262,48.2350634 30.9534131,48.2765725 31,48.3202211 Z" id="Shape" fill="#5A9BCC"></path>
                        <path d="M19.00009,48 C16.7909347,48 15,46.5211016 15,44.6968496 L15,39 L23,39 L23,44.6968496 C23.00018,46.5211016 21.2092453,48 19.00009,48 Z" id="Shape" fill="#FCCE99"></path>
                        <path d="M29.7267167,66 L23.2732833,66 C22.5698956,66 22,65.3284364 22,64.5 C22,63.6715636 22.5700604,63 23.2732833,63 L29.7267167,63 C30.4301044,63 31,63.6715636 31,64.5 C31,65.3284364 30.4299396,66 29.7267167,66 Z" id="Shape" fill="#5A9BCC"></path>
                        <g id="Group" transform="translate(1.000000, 22.000000)" fill="#FCCE99">
                            <ellipse id="Oval" cx="29.4292308" cy="4.47285" rx="4.54676923" ry="4.4331"></ellipse>
                            <ellipse id="Oval" cx="4.67384615" cy="4.47285" rx="4.54676923" ry="4.4331"></ellipse>
                        </g>
                        <path d="M31,14 L30.3807985,21.1470634 L29.5465246,30.7685652 C29.045928,36.5522674 24.0260652,41 17.9990305,41 C11.9739348,41 6.95407199,36.5522674 6.45347536,30.7685652 L5.57896634,20.6803145 L5,14 L31,14 Z" id="Shape" fill="#FEE6CC"></path>
                        <path d="M31,14.000162 L30.3807985,21.4378151 C28.3945707,21.812605 26.3781261,22 24.335666,22 C17.6129991,22 12.235221,19.9506408 9.41471934,18.5944972 C8.48187739,19.3703156 7.2032392,20.2488207 5.57896634,20.9520782 L5,14 L31,14 L31,14.000162 Z" id="Shape" fill="#FCCE99"></path>
                        <path d="M28.3033497,10 C32.1930549,13.1517089 39,14.6655007 39,14.6655007 C23.2467173,24.3581571 9.24390353,14.7676821 9.24390353,14.7676821 C9.24390353,14.7676821 7.45232247,17.2659327 4,18.5423623 L4,10 L28.3033497,10 Z" id="Shape" fill="#3D434F"></path>
                        <path d="M24.1183411,18.9999999 C21.8251077,19.0001446 19.7614295,18.7569578 18.0141819,18.4259576 C13.9885408,17.6637024 11.0095787,16.350407 9.61385208,15.6489122 C8.7330402,16.4607886 7.04546152,17.7573025 4.58419674,18.5521081 C3.95983746,18.7534858 3.28060134,18.4434624 3.06557689,17.8600167 C2.85055244,17.2764263 3.18166845,16.6400322 3.80510024,16.4387991 C6.84496784,15.4572272 8.41769162,13.5732169 8.43330446,13.5542654 C8.81110443,13.0946554 9.5014705,12.9813805 10.0236507,13.2935738 C10.0556493,13.31267 13.427715,15.2924505 18.5810364,16.2523221 C24.4347718,17.3422502 30.106718,16.7470864 35.4827931,14.4834675 C33.1057758,13.8052643 29.843,12.6619537 27.5075655,11.009412 C26.9815208,10.6371815 26.8774867,9.93597608 27.2752278,9.44367115 C27.6728144,8.95136622 28.4217673,8.85386004 28.9482757,9.22623527 C32.5386121,11.7670379 38.9837807,13.0401156 39.0483962,13.0527017 C39.5340949,13.1470252 39.9067936,13.5126011 39.9850124,13.970909 C40.0632313,14.4293617 39.8304298,14.885355 39.4002263,15.1165343 C33.8772978,18.084252 28.5669203,18.9999999 24.1183411,18.9999999 Z" id="Shape" fill="#585858"></path>
                        <g id="Group" transform="translate(40.000000, 62.000000)" fill="#5A9BCC">
                            <path d="M1.18128713,4.91585714 C0.547425743,4.91585714 0.0338613861,4.42171429 0.0338613861,3.81214286 L0.0338613861,1.17528571 C0.0338613861,0.565571429 0.547574257,0.0715714286 1.18128713,0.0715714286 C1.81514851,0.0715714286 2.32871287,0.565714286 2.32871287,1.17528571 L2.32871287,3.81214286 C2.32871287,4.42171429 1.815,4.91585714 1.18128713,4.91585714 Z" id="Shape"></path>
                            <path d="M5.40089109,4.91585714 C4.7670297,4.91585714 4.25346535,4.42171429 4.25346535,3.81214286 L4.25346535,1.17528571 C4.25346535,0.565571429 4.76717822,0.0715714286 5.40089109,0.0715714286 C6.03475248,0.0715714286 6.54831683,0.565714286 6.54831683,1.17528571 L6.54831683,3.81214286 C6.54846535,4.42171429 6.03475248,4.91585714 5.40089109,4.91585714 Z" id="Shape"></path>
                            <path d="M9.62064356,4.91585714 C8.98678218,4.91585714 8.47321782,4.42171429 8.47321782,3.81214286 L8.47321782,1.17528571 C8.47321782,0.565571429 8.98693069,0.0715714286 9.62064356,0.0715714286 C10.254505,0.0715714286 10.7680693,0.565714286 10.7680693,1.17528571 L10.7680693,3.81214286 C10.7680693,4.42171429 10.2543564,4.91585714 9.62064356,4.91585714 Z" id="Shape"></path>
                            <path d="M13.8402475,4.91585714 C13.2063861,4.91585714 12.6928218,4.42171429 12.6928218,3.81214286 L12.6928218,1.17528571 C12.6928218,0.565571429 13.2065347,0.0715714286 13.8402475,0.0715714286 C14.4741089,0.0715714286 14.9876733,0.565714286 14.9876733,1.17528571 L14.9876733,3.81214286 C14.9878218,4.42171429 14.4741089,4.91585714 13.8402475,4.91585714 Z" id="Shape"></path>
                        </g>
                        <path d="M78.7175558,28 L42.2825998,28 C41.5741428,28 41,27.3921368 41,26.6424388 L41,20.3575612 C41,19.6076985 41.5742984,19 42.2825998,19 L78.7174001,19 C79.4258572,19 80,19.6078632 80,20.3575612 L80,26.6424388 C80.0001556,27.3921368 79.4258572,28 78.7175558,28 Z" id="Shape" fill="#D2E3F1"></path>
                        <path d="M51,28 L42.151058,28 C41.5152594,28 41,27.3921368 41,26.6424388 L41,20.3575612 C41,19.6076985 41.5153991,19 42.151058,19 L51,19 L51,28 Z" id="Shape" fill="#8C191B"></path>
                        <path d="M78.7175558,43 L42.2825998,43 C41.5741428,43 41,42.3921368 41,41.6424388 L41,35.3575612 C41,34.6076985 41.5742984,34 42.2825998,34 L78.7174001,34 C79.4258572,34 80,34.6078632 80,35.3575612 L80,41.6424388 C80.0001556,42.3921368 79.4258572,43 78.7175558,43 Z" id="Shape" fill="#D2E3F1"></path>
                        <path d="M71,43 L42.3184756,43 C41.5902022,43 41,42.3921368 41,41.6424388 L41,35.3575612 C41,34.6076985 41.5903622,34 42.3184756,34 L71,34 L71,43 Z" id="Shape" fill="#54C0EB"></path>
                        <path d="M78.7175558,57 L42.2825998,57 C41.5741428,57 41,56.3921368 41,55.6424388 L41,49.3575612 C41,48.6076985 41.5742984,48 42.2825998,48 L78.7174001,48 C79.4258572,48 80,48.6078632 80,49.3575612 L80,55.6424388 C80.0001556,56.3921368 79.4258572,57 78.7175558,57 Z" id="Shape" fill="#D2E3F1"></path>
                        <path d="M64,57 L42.2929175,57 C41.5787614,57 41,56.3921368 41,55.6424388 L41,49.3575612 C41,48.6076985 41.5789183,48 42.2929175,48 L64,48 L64,57 Z" id="Shape" fill="#EEDE4B"></path>
                    </g>
                </g>
            </g>
        </g>
    </g>
</svg>