<?xml version="1.0" encoding="UTF-8"?>
<svg width="45px" height="44px" viewBox="0 0 45 44" version="1.1" xmlns="http://www.w3.org/2000/svg" xmlns:xlink="http://www.w3.org/1999/xlink">
    <!-- Generator: sketchtool 50.2 (55047) - http://www.bohemiancoding.com/sketch -->
    <title>B76E7414-ABA0-4D9B-A4B2-92C3B50366D1</title>
    <desc>Created with sketchtool.</desc>
    <defs></defs>
    <g id="bsbv" stroke="none" stroke-width="1" fill="none" fill-rule="evenodd">
        <g id="Main-Desktop" transform="translate(-42.000000, -216.000000)" fill="#3D434F">
            <g id="callback" transform="translate(42.000000, 214.000000)">
                <g id="call" transform="translate(10.000000, 22.000000)" fill-rule="nonzero">
                    <path d="M17.8112896,13.1384872 C17.7596066,13.2101426 17.7596066,13.2817981 17.733765,13.3773388 C17.7079235,13.6878459 17.9663388,13.9744679 18.3022787,13.9983531 C18.6382186,14.0222382 18.9483169,13.7833866 18.9741585,13.4728795 C18.9741585,13.401224 18.9741585,13.3295685 19,13.2101426 C19,13.0907168 19,13.0190613 19,12.9474058 C19,12.2547361 18.8707923,11.5859515 18.6382186,10.9410521 C18.3281202,10.1050713 17.7854481,9.36463124 17.1394098,8.74361697 C16.3383224,8.00317689 15.3563443,7.47770328 14.2451585,7.19108131 C13.7283279,7.07165549 13.1598142,7 12.6171421,7 C12.4362514,7 12.2553606,7 12.0486284,7.02388516 C11.8677377,7.04777033 11.686847,7.07165549 11.5059563,7.09554066 C11.1700164,7.14331098 10.9374426,7.45381812 11.0149672,7.74044008 C11.0666503,8.05094722 11.4025902,8.26591369 11.7126885,8.1942582 C11.8677377,8.17037304 11.9969453,8.14648787 12.1519945,8.14648787 C12.1778361,8.14648787 12.2036776,8.14648787 12.2295191,8.14648787 C12.3587268,8.14648787 12.4879344,8.12260271 12.6171421,8.12260271 C14.0384262,8.12260271 15.3563443,8.64807632 16.2866393,9.53182739 C17.2169344,10.3916933 17.7854481,11.5620663 17.8112896,12.8757504 L17.8112896,12.9235207 C17.8112896,13.0190613 17.8112896,13.0907168 17.8112896,13.1384872 Z" id="Shape"></path>
                    <path d="M19.8497142,12.4049121 C19.826239,12.7016691 20.0609912,12.9755985 20.366169,12.998426 C20.6713469,13.0212534 20.9530496,12.7929789 20.9765248,12.4962219 C21,12.2451199 21,11.9940179 21,11.7429159 C21,11.2407118 20.9530496,10.7613352 20.8826239,10.2819587 C20.577446,8.45576213 19.6619124,6.81218525 18.3707753,5.55667514 C16.8918364,4.11854537 14.9199178,3.18261965 12.7367223,3.02282746 C12.5019701,3 12.2437426,3 12.0089904,3 C11.750763,3 11.4925356,3 11.2343081,3.02282746 C10.9760807,3.04565491 10.7178533,3.06848237 10.4596259,3.11413728 C10.154448,3.1597922 9.94317099,3.45654913 10.0135967,3.73047861 C10.0605471,4.02723555 10.365725,4.23268266 10.6474276,4.16420029 C10.8117542,4.14137283 10.9526055,4.11854537 11.116932,4.09571792 C11.1873577,4.09571792 11.2577834,4.07289046 11.328209,4.07289046 C11.5629612,4.050063 11.7977134,4.050063 12.0089904,4.050063 C12.8071479,4.050063 13.558355,4.16420029 14.2860868,4.3696474 C15.5537488,4.7348867 16.6805594,5.39688294 17.596093,6.28715375 C18.3473,7.01763236 18.9576558,7.90790317 19.3567345,8.86665635 C19.7088629,9.7340997 19.9201398,10.6928529 19.9201398,11.697261 C19.9201398,11.7657433 19.9201398,11.8570532 19.9201398,11.9255355 C19.8731894,12.1081552 19.8497142,12.2451199 19.8497142,12.4049121 Z" id="Shape"></path>
                    <path d="M21.3842765,3.65486005 C19.1244493,1.3855025 16.0320542,0 12.606632,0 C12.2498171,0 11.8930023,0.0238879742 11.5361875,0.0477759484 C11.1793727,0.0716639225 10.8225579,0.119439871 10.4657431,0.191103793 C10.1565035,0.238879742 9.94241465,0.549423406 10.0137776,0.836079096 C10.0613529,1.14662276 10.3705924,1.36161453 10.6560443,1.28995061 C10.8225579,1.26606263 10.9652838,1.24217466 11.1317974,1.21828668 C11.298311,1.19439871 11.4648245,1.17051073 11.6313381,1.17051073 C11.9643653,1.14662276 12.2736048,1.12273479 12.606632,1.12273479 C15.6990271,1.12273479 18.5059703,2.38879742 20.5517086,4.41927522 C22.5736592,6.44975303 23.8344049,9.26853398 23.8344049,12.3978586 C23.8344049,12.5650744 23.8344049,12.7561782 23.8344049,12.923394 C23.8344049,13.0667219 23.8106173,13.2100497 23.8106173,13.3772655 C23.7868296,13.6878092 24.0247062,13.9744649 24.3339457,13.9983529 C24.6431852,14.0222408 24.928637,13.7833611 24.9524247,13.4728174 C24.9762123,13.1144978 25,12.7561782 25,12.4217466 C25,9.00576626 23.620316,5.90032962 21.3842765,3.65486005 Z" id="Shape"></path>
                    <path d="M24.4124059,18.1810929 L20.056511,15.9245145 C18.6045461,15.1644039 18.5553269,15.6632264 17.0295332,17.2309546 C16.6603896,17.6110099 15.9713214,18.6086551 15.1592054,18.4186274 C13.4611447,18.0148187 10.2865094,15.6157195 9.25290724,14.5230605 C8.76071572,14.0004845 6.6442922,11.5063715 6.61968262,10.698754 C6.57046347,9.46357426 9.37595512,8.84598439 8.46540081,6.49439218 L6.52124432,2.29003035 C4.70013571,-1.74805728 -0.394046489,4.71288293 0.0243163006,7.72957192 C1.10713764,15.1644039 14.6177948,27.1836529 22.148325,23.2168257 C23.8217761,22.3141943 26.0858571,19.1549846 24.4124059,18.1810929 Z" id="Shape"></path>
                </g>
                <text id="Callback-Copy" font-family="HelveticaNeue-Light, Helvetica Neue" font-size="12" font-weight="300">
                    <tspan x="0" y="12">Callback</tspan>
                </text>
            </g>
        </g>
    </g>
</svg>