<?xml version="1.0" encoding="UTF-8"?>
<svg width="12px" height="12px" viewBox="0 0 12 12" version="1.1" xmlns="http://www.w3.org/2000/svg" xmlns:xlink="http://www.w3.org/1999/xlink">
    <!-- Generator: sketchtool 50.2 (55047) - http://www.bohemiancoding.com/sketch -->
    <title>9AF755BD-2837-4241-8FC3-9EA6E32C2904</title>
    <desc>Created with sketchtool.</desc>
    <defs></defs>
    <g id="Symbols" stroke="none" stroke-width="1" fill="none" fill-rule="evenodd" opacity="0.420926339">
        <g id="close" fill="#3D434F" fill-rule="nonzero">
            <g id="Shape">
                <path d="M7.7260274,6.19178082 C7.61643836,6.08219178 7.61643836,5.91780822 7.7260274,5.80821918 L11.8356164,1.69863014 C11.9452055,1.5890411 12,1.42465753 12,1.31506849 C12,1.20547945 11.9452055,1.04109589 11.8356164,0.931506849 L11.0684932,0.164383562 C10.9589041,0.0547945205 10.7945205,0 10.6849315,0 C10.5205479,0 10.4109589,0.0547945205 10.3013699,0.164383562 L6.19178082,4.2739726 C6.08219178,4.38356164 5.91780822,4.38356164 5.80821918,4.2739726 L1.69863014,0.164383562 C1.5890411,0.0547945205 1.42465753,0 1.31506849,0 C1.20547945,0 1.04109589,0.0547945205 0.931506849,0.164383562 L0.164383562,0.931506849 C0.0547945205,1.04109589 0,1.20547945 0,1.31506849 C0,1.42465753 0.0547945205,1.5890411 0.164383562,1.69863014 L4.2739726,5.80821918 C4.38356164,5.91780822 4.38356164,6.08219178 4.2739726,6.19178082 L0.164383562,10.3013699 C0.0547945205,10.4109589 0,10.5753425 0,10.6849315 C0,10.7945205 0.0547945205,10.9589041 0.164383562,11.0684932 L0.931506849,11.8356164 C1.04109589,11.9452055 1.20547945,12 1.31506849,12 C1.42465753,12 1.5890411,11.9452055 1.69863014,11.8356164 L5.80821918,7.7260274 C5.91780822,7.61643836 6.08219178,7.61643836 6.19178082,7.7260274 L10.3013699,11.8356164 C10.4109589,11.9452055 10.5753425,12 10.6849315,12 C10.7945205,12 10.9589041,11.9452055 11.0684932,11.8356164 L11.8356164,11.0684932 C11.9452055,10.9589041 12,10.7945205 12,10.6849315 C12,10.5753425 11.9452055,10.4109589 11.8356164,10.3013699 L7.7260274,6.19178082 Z"></path>
            </g>
        </g>
    </g>
</svg>