<?xml version="1.0" encoding="UTF-8"?>
<svg width="14px" height="20px" viewBox="0 0 14 20" version="1.1" xmlns="http://www.w3.org/2000/svg" xmlns:xlink="http://www.w3.org/1999/xlink">
    <!-- Generator: sketchtool 50.2 (55047) - http://www.bohemiancoding.com/sketch -->
    <title>29F1E859-F413-41F7-81C2-4BD087488853</title>
    <desc>Created with sketchtool.</desc>
    <defs></defs>
    <g id="bsbv" stroke="none" stroke-width="1" fill="none" fill-rule="evenodd">
        <g id="Main-Desktop-Contact-Details-" transform="translate(-981.000000, -4560.000000)" fill="#3D434F" fill-rule="nonzero">
            <g id="contact-details-" transform="translate(929.000000, 4517.000000)">
                <g id="Group-40-Copy" transform="translate(51.000000, 37.000000)">
                    <g id="location" transform="translate(1.000000, 6.000000)">
                        <path d="M13.6692575,4.97780816 C13.5969194,4.71099455 13.4500224,4.42669717 13.3413499,4.17778584 C12.0409648,1.10222197 9.19965036,0 6.90543126,0 C3.8342035,0 0.451605282,2.02672321 0,6.20427655 L0,7.05777319 C0,7.09339174 0.0124737178,7.41335417 0.0301920669,7.57340513 C0.283351839,9.56432379 1.87965697,11.6802329 3.071842,13.6711515 C4.35446148,15.8042189 5.68536937,17.9025512 7.00394529,20 C7.81700489,18.6312434 8.62713506,17.2444916 9.42167308,15.9111675 C9.63821494,15.519875 9.88957925,15.128815 10.1063573,14.7553317 C10.2508446,14.5066529 10.5268728,14.2579741 10.6529802,14.026593 C11.9355525,11.7156189 14,9.38678905 14,7.09334524 L14,6.15117423 C14.0000472,5.90254189 13.6868813,5.03142198 13.6692575,4.97780816 Z M6.96165749,9.26235664 C6.05887217,9.26235664 5.07070803,8.81810129 4.58295731,7.5912144 C4.51028845,7.39591689 4.51614732,7.00453137 4.51614732,6.96868032 L4.51614732,6.41756934 C4.51614732,4.85351524 5.86557679,4.14226029 7.03952373,4.14226029 C8.48477403,4.14226029 9.60254199,5.28019381 9.60254199,6.70251771 C9.60254199,8.12479511 8.40690779,9.26235664 6.96165749,9.26235664 Z" id="Facebook_Places"></path>
                    </g>
                </g>
            </g>
        </g>
    </g>
</svg>