<?xml version="1.0" encoding="UTF-8"?>
<svg width="16px" height="35px" viewBox="0 0 16 35" version="1.1" xmlns="http://www.w3.org/2000/svg" xmlns:xlink="http://www.w3.org/1999/xlink">
    <!-- Generator: sketchtool 50.2 (55047) - http://www.bohemiancoding.com/sketch -->
    <title>4266998B-22B8-4EA7-8E02-0AFA9C7AADA2</title>
    <desc>Created with sketchtool.</desc>
    <defs></defs>
    <g id="bsbv" stroke="none" stroke-width="1" fill="none" fill-rule="evenodd">
        <g id="Main-Desktop" transform="translate(-56.000000, -768.000000)" fill="#000000" fill-rule="nonzero">
            <g id="scroll" transform="translate(56.000000, 768.000000)">
                <g id="cursor" transform="translate(8.000000, 13.000000) rotate(-180.000000) translate(-8.000000, -13.000000) ">
                    <path d="M14.3727764,2.49504946 C12.9646247,0.839492473 10.8205432,0 8,0 C5.17945678,0 3.03537534,0.839492473 1.6272236,2.49504946 C0.211373383,4.15966452 0,6.10988817 0,7.12427957 L0,18.8757763 C0,19.8901677 0.211373383,21.8403914 1.6272236,23.5050065 C3.03537534,25.1605634 5.17945678,26 8,26 C10.8205432,26 12.9646247,25.1605634 14.3727764,23.5050065 C15.7886266,21.8403914 16,19.8901677 16,18.8757763 L16,7.12427957 C16,6.10988817 15.7886266,4.15966452 14.3727764,2.49504946 Z M8,9.05806452 C7.41552944,9.05806452 6.94006485,8.58150968 6.94006485,7.99569892 L6.94006485,5.71910538 C6.94006485,5.13329462 7.41552944,4.65673978 8,4.65673978 C8.58447056,4.65673978 9.05993515,5.13329462 9.05993515,5.71910538 L9.05993515,7.99569892 C9.05993515,8.58150968 8.58447056,9.05806452 8,9.05806452 Z M15.1632091,18.8757763 C15.1632091,19.9253376 14.8178934,25.1612903 8,25.1612903 C1.18210662,25.1612903 0.836790907,19.9253376 0.836790907,18.8757763 L0.836790907,7.12427957 C0.836790907,6.09663656 1.16888532,1.05671828 7.58160455,0.846313978 L7.58160455,3.86522151 C6.73644573,4.0567828 6.10327394,4.81492043 6.10327394,5.71910538 L6.10327394,7.99569892 C6.10327394,8.89988387 6.73644573,9.65802151 7.58160455,9.8495828 L7.58160455,13.2954495 C7.58160455,13.5271011 7.76887835,13.7148043 8,13.7148043 C8.23112165,13.7148043 8.41839545,13.5271011 8.41839545,13.2954495 L8.41839545,9.8495828 C9.26355427,9.65802151 9.89672606,8.89988387 9.89672606,7.99569892 L9.89672606,5.71910538 C9.89672606,4.81492043 9.26355427,4.0567828 8.41839545,3.86522151 L8.41839545,0.846313978 C14.8311705,1.05677419 15.1632091,6.09663656 15.1632091,7.12427957 L15.1632091,18.8757763 Z" id="Shape"></path>
                </g>
                <g id="back" transform="translate(8.000000, 32.000000) rotate(-90.000000) translate(-8.000000, -32.000000) translate(5.000000, 27.000000)">
                    <path d="M0.777513385,4.99973804 L5.90541344,0.483575208 C6.03152885,0.372504846 6.03152885,0.194373134 5.90541344,0.0833027715 C5.77929804,-0.0277675905 5.57703748,-0.0277675905 5.45092207,0.0833027715 L0.0945865556,4.80064966 C-0.0315288519,4.91172002 -0.0315288519,5.08985173 0.0945865556,5.20092209 L5.45092207,9.91617331 C5.51279001,9.97066066 5.59607377,10 5.67697799,10 C5.75788221,10 5.84116597,9.97275633 5.90303391,9.91617331 C6.02914932,9.80510295 6.02914932,9.62697124 5.90303391,9.51590087 L0.777513385,4.99973804 Z" id="Shape"></path>
                </g>
            </g>
        </g>
    </g>
</svg>