<?xml version="1.0" encoding="UTF-8"?>
<svg width="20px" height="10px" viewBox="0 0 20 10" version="1.1" xmlns="http://www.w3.org/2000/svg" xmlns:xlink="http://www.w3.org/1999/xlink">
    <!-- Generator: sketchtool 50.2 (55047) - http://www.bohemiancoding.com/sketch -->
    <title>95B867E8-B8CB-44BC-AFE1-2D8A8D62A9C5</title>
    <desc>Created with sketchtool.</desc>
    <defs></defs>
    <g id="bsbv" stroke="none" stroke-width="1" fill="none" fill-rule="evenodd">
        <g id="Main-Desktop" transform="translate(-1214.000000, -725.000000)" fill="#3D434F" fill-rule="nonzero">
            <g id="form" transform="translate(125.000000, 592.000000)">
                <path d="M1102.46777,133.150393 C1102.1953,132.949869 1101.74182,132.949869 1101.45983,133.150393 C1101.18736,133.344142 1101.18736,133.666606 1101.45983,133.859904 L1106.57066,137.494174 L1089.70562,137.494174 C1089.31248,137.494626 1089,137.716828 1089,137.996387 C1089,138.275946 1089.31248,138.505374 1089.70562,138.505374 L1106.57066,138.505374 L1101.45983,142.13287 C1101.18736,142.333394 1101.18736,142.656309 1101.45983,142.849607 C1101.74182,143.050131 1102.19594,143.050131 1102.46777,142.849607 L1108.7885,138.354981 C1109.0705,138.161232 1109.0705,137.838768 1108.7885,137.64547 L1102.46777,133.150393 Z" id="Shape-Copy"></path>
            </g>
        </g>
    </g>
</svg>