<?xml version="1.0" encoding="UTF-8"?>
<svg width="25px" height="26px" viewBox="0 0 25 26" version="1.1" xmlns="http://www.w3.org/2000/svg" xmlns:xlink="http://www.w3.org/1999/xlink">
    <!-- Generator: Sketch 50.2 (55047) - http://www.bohemiancoding.com/sketch -->
    <title>smal logo</title>
    <desc>Created with Sketch.</desc>
    <defs></defs>
    <g id="bsbv" stroke="none" stroke-width="1" fill="none" fill-rule="evenodd">
        <g id="Main-Desktop-Contact-Details--Copy" transform="translate(-15.000000, -19.000000)" fill-rule="nonzero">
            <g id="bsbv-logo" transform="translate(15.000000, 19.000000)">
                <g id="smal-logo" transform="translate(12.250000, 12.750000) scale(-1, 1) rotate(-180.000000) translate(-12.250000, -12.750000) ">
                    <polygon id="Shape" fill="#8C191B" points="0 22.2117751 0 18.9489611 3.04238803 18.9489611 6.08477606 18.9489611 6.08477606 22.2117751 6.08477606 25.4745891 3.04238803 25.4745891 0 25.4745891"></polygon>
                    <polygon id="Shape" fill="#3D434F" points="9.12716434 22.2117751 9.12716434 18.9489611 13.6645188 18.9489611 18.2018743 18.9489611 18.2018743 14.1363125 18.2018743 9.32366391 21.3491728 9.32366391 24.4964693 9.32366391 24.4964693 17.3991265 24.4964693 25.4745892 16.8118173 25.4745892 9.12716434 25.4745892"></polygon>
                    <polygon id="Shape" fill="#3D434F" points="0 7.93697408 0 0.0246562826 7.60597046 0.0246562826 15.2119409 0.0246562826 15.2119409 3.1787071 15.2119409 6.33275792 10.6483582 6.33275792 6.08477606 6.33275792 6.08477606 11.0910249 6.08477606 15.8492919 3.04238803 15.8492919 0 15.8492919"></polygon>
                    <polygon id="Shape" fill="#8C191B" points="9.12716434 12.5864779 9.12716434 9.32366388 12.2744628 9.32366388 15.4217603 9.32366388 15.4217603 12.5864779 15.4217603 15.8492919 12.2744628 15.8492919 9.12716434 15.8492919 9.12716434 12.5864779"></polygon>
                    <polygon id="Shape" fill="#8C191B" points="18.2018743 3.17870707 18.2018743 0.024656249 21.3491728 0.024656249 24.4964693 0.024656249 24.4964693 3.17870707 24.4964693 6.33275789 21.3491728 6.33275789 18.2018743 6.33275789"></polygon>
                </g>
            </g>
        </g>
    </g>
</svg>