<?xml version="1.0" encoding="UTF-8"?>
<svg width="18px" height="86px" viewBox="0 0 18 86" version="1.1" xmlns="http://www.w3.org/2000/svg" xmlns:xlink="http://www.w3.org/1999/xlink">
    <!-- Generator: sketchtool 50.2 (55047) - http://www.bohemiancoding.com/sketch -->
    <title>B6491A45-F959-4EC7-9AAE-6506E878E490</title>
    <desc>Created with sketchtool.</desc>
    <defs></defs>
    <g id="bsbv" stroke="none" stroke-width="1" fill="none" fill-rule="evenodd">
        <g id="Main-Desktop" transform="translate(-55.000000, -600.000000)">
            <g id="social-" transform="translate(55.000000, 600.000000)">
                <g id="linkedin-logo-copy" fill="#3D434F" fill-rule="nonzero">
                    <path d="M17.0666667,9.8095873 L17.0666667,16 L13.4087274,16 L13.4087274,10.2241838 C13.4087274,8.77325171 12.8796459,7.78304728 11.5555932,7.78304728 C10.5448468,7.78304728 9.94335092,8.4503725 9.67873083,9.09589734 C9.58223119,9.32666994 9.55739206,9.64787519 9.55739206,9.97091012 L9.55739206,16 L5.89822273,16 C5.89822273,16 5.94750421,6.21766317 5.89822273,5.20414013 L9.55703495,5.20414013 L9.55703495,6.73441005 C9.54961495,6.74585525 9.53997292,6.75819582 9.5329894,6.76929066 L9.55703495,6.76929066 L9.55703495,6.73441005 C10.0431439,5.99985402 10.9112835,4.95051606 12.8544497,4.95051606 C15.2619013,4.95047713 17.0666667,6.49351585 17.0666667,9.8095873 Z M2.07057584,0 C0.818778766,0 0,0.80556299 0,1.86490577 C0,2.9011635 0.795090328,3.73117406 2.02200859,3.73117406 L2.04645093,3.73117406 C3.32249194,3.73117406 4.11607446,2.90131921 4.11607446,1.86490577 C4.09202891,0.80556299 3.32249194,0 2.07057584,0 Z M0.217322573,16 L3.87510313,16 L3.87510313,5.20414013 L0.217322573,5.20414013 L0.217322573,16 Z" id="LinkedIn"></path>
                </g>
                <path d="M5.2873973,45.086793 L7.24036963,45.086793 L7.24036963,53.2096797 C7.24036963,53.3700625 7.36898332,53.5 7.52773213,53.5 L10.8390821,53.5 C10.9978309,53.5 11.1264446,53.3700625 11.1264446,53.2096797 L11.1264446,45.1250781 L13.3715816,45.1250781 C13.5175595,45.1250781 13.6403967,45.0144063 13.657065,44.8679102 L13.9980513,41.8774844 C14.007412,41.7952187 13.9816266,41.7128125 13.9271328,41.6510781 C13.8726042,41.5893086 13.7945522,41.5539414 13.7126375,41.5539414 L11.1265838,41.5539414 L11.1265838,39.679375 C11.1265838,39.1143086 11.4277263,38.82775 12.0217991,38.82775 C12.1064628,38.82775 13.7126375,38.82775 13.7126375,38.82775 C13.8713863,38.82775 14,38.6977422 14,38.5374297 L14,35.7924648 C14,35.632082 13.8713863,35.5021445 13.7126375,35.5021445 L11.3823844,35.5021445 C11.3659598,35.5013359 11.3294566,35.5 11.2756587,35.5 C10.8713399,35.5 9.46595008,35.5801914 8.35578711,36.6119922 C7.12574478,37.7554141 7.29674251,39.1244336 7.33759545,39.3618086 L7.33759545,41.5538711 L5.2873625,41.5538711 C5.12861368,41.5538711 5,41.6838086 5,41.8441914 L5,44.7964375 C5.0000348,44.9567852 5.12864848,45.086793 5.2873973,45.086793 Z" id="Shape" fill="#3D434F" fill-rule="nonzero"></path>
                <g id="facebook" transform="translate(5.000000, 35.500000)"></g>
                <path d="M17.7455306,74.5123031 C17.3900357,74.6662807 17.0210044,74.7877558 16.6423376,74.8756994 C17.0595849,74.488412 17.3733005,74.003998 17.5502873,73.4633045 C17.6008048,73.3089459 17.4291624,73.1754682 17.286465,73.2581154 C16.7596787,73.5633271 16.1922443,73.7922931 15.5998827,73.9387261 C15.5655152,73.9472233 15.5300554,73.951529 15.4944786,73.951529 C15.3865779,73.951529 15.2816809,73.9123964 15.1991755,73.8413708 C14.5689356,73.2988103 13.758354,73 12.9167988,73 C12.5526436,73 12.1849777,73.0554411 11.8239823,73.1647991 C10.7054976,73.5036565 9.842487,74.4048503 9.571721,75.5167203 C9.47013986,75.9337667 9.44263806,76.3511943 9.48991776,76.7573812 C9.4953401,76.8040584 9.47275351,76.8366371 9.45882706,76.8519168 C9.43436801,76.8787038 9.39968843,76.8940596 9.36368252,76.8940596 C9.35966452,76.8940596 9.3555295,76.8938691 9.35143349,76.8934881 C6.90310964,76.6713046 4.69531931,75.5191589 3.13473814,73.6493275 C3.05515845,73.5539536 2.90255269,73.5656514 2.83912299,73.671923 C2.53352137,74.1840386 2.37202141,74.7697708 2.37202141,75.365791 C2.37202141,76.2792161 2.74772337,77.1400199 3.40031586,77.7675519 C3.12588295,77.7039947 2.86026622,77.603896 2.61353017,77.4700372 C2.49416063,77.4052607 2.34728929,77.4885176 2.34561187,77.621881 C2.32852564,78.9788348 3.14187691,80.1862691 4.36030441,80.7299728 C4.33576734,80.7305443 4.31123027,80.7308111 4.28665419,80.7308111 C4.0935174,80.7308111 3.89796201,80.7125974 3.70548838,80.6766655 C3.57106111,80.6515932 3.45812817,80.7761546 3.4998685,80.9034595 C3.89534836,82.109484 4.95843942,82.9984465 6.23062223,83.2002826 C5.17478696,83.8925911 3.94524171,84.2577783 2.66553004,84.2577783 L2.26657831,84.2575497 C2.1436589,84.2575497 2.03969817,84.335815 2.00837342,84.4521079 C1.97751678,84.566648 2.03435385,84.6874753 2.13917279,84.7470316 C3.58120362,85.5667594 5.22604564,86 6.89659503,86 C8.35887187,86 9.72670635,85.7165456 10.9621421,85.1575623 C12.0947093,84.6451038 13.095541,83.9125576 13.9368232,82.980271 C14.7205271,82.1118084 15.3333687,81.1092584 15.7582619,80.0005129 C16.1632991,78.9436268 16.3773841,77.8159057 16.3773841,76.7392437 L16.3773841,76.687956 C16.3773451,76.5150789 16.4573929,76.3524136 16.5970474,76.2416838 C17.1269936,75.8213985 17.5884778,75.3266583 17.9686268,74.7712187 C18.0689987,74.624557 17.9106975,74.4407441 17.7455306,74.5123031 Z" id="Shape" fill="#3D434F" fill-rule="nonzero"></path>
                <g id="twitter-copy" transform="translate(2.000000, 73.000000)"></g>
            </g>
        </g>
    </g>
</svg>