<?xml version="1.0" encoding="UTF-8"?>
<svg width="18px" height="18px" viewBox="0 0 18 18" version="1.1" xmlns="http://www.w3.org/2000/svg" xmlns:xlink="http://www.w3.org/1999/xlink">
    <!-- Generator: sketchtool 50.2 (55047) - http://www.bohemiancoding.com/sketch -->
    <title>588E331E-2EC7-4C40-B381-6804D8F294FC</title>
    <desc>Created with sketchtool.</desc>
    <defs></defs>
    <g id="bsbv" stroke="none" stroke-width="1" fill="none" fill-rule="evenodd">
        <g id="Main-Desktop-lang-menu-" transform="translate(-780.000000, -91.000000)" fill-rule="nonzero">
            <g id="lang" transform="translate(767.000000, 46.000000)">
                <g id="united-kingdom" transform="translate(13.000000, 45.000000)">
                    <circle id="Oval" fill="#F0F0F0" cx="9" cy="9" r="9"></circle>
                    <g id="Group" fill="#0052B4">
                        <path d="M1.63016129,3.3438629 C0.900399194,4.29332661 0.350129032,5.38766129 0.0297217742,6.57649597 L4.86279435,6.57649597 L1.63016129,3.3438629 Z" id="Shape"></path>
                        <path d="M17.9702782,6.57649597 C17.649871,5.38769758 17.0995645,4.2933629 16.3698387,3.34389919 L13.1372782,6.57649597 L17.9702782,6.57649597 Z" id="Shape"></path>
                        <path d="M0.0297217742,11.4236129 C0.350165323,12.6124113 0.900435484,13.706746 1.63016129,14.6561734 L4.86268548,11.4236129 L0.0297217742,11.4236129 Z" id="Shape"></path>
                        <path d="M14.6561371,1.63019758 C13.7066734,0.900435484 12.612375,0.350165323 11.4235403,0.0297217742 L11.4235403,4.86275806 L14.6561371,1.63019758 Z" id="Shape"></path>
                        <path d="M3.3438629,16.3698024 C4.29332661,17.0995645 5.38766129,17.6498347 6.57645968,17.9702782 L6.57645968,13.1372782 L3.3438629,16.3698024 Z" id="Shape"></path>
                        <path d="M6.57642339,0.0297217742 C5.387625,0.350165323 4.29329032,0.900435484 3.3438629,1.63016129 L6.57642339,4.86272177 L6.57642339,0.0297217742 Z" id="Shape"></path>
                        <path d="M11.4235766,17.9702782 C12.612375,17.6498347 13.7067097,17.0995645 14.6561371,16.3698387 L11.4235766,13.1372782 L11.4235766,17.9702782 Z" id="Shape"></path>
                        <path d="M13.1372782,11.4236129 L16.3698387,14.6562097 C17.0995645,13.7067823 17.649871,12.6124113 17.9702782,11.4236129 L13.1372782,11.4236129 Z" id="Shape"></path>
                    </g>
                    <g id="Group" fill="#D80027">
                        <path d="M17.9238164,7.82609766 L10.1739727,7.82609766 L10.1739375,7.82609766 L10.1739375,0.0761835937 C9.78964453,0.02615625 9.39786328,0 9,0 C8.60206641,0 8.21035547,0.02615625 7.82609766,0.0761835937 L7.82609766,7.82602734 L7.82609766,7.8260625 L0.0761835937,7.8260625 C0.02615625,8.21035547 0,8.60213672 0,9 C0,9.39793359 0.02615625,9.78964453 0.0761835937,10.1739023 L7.82602734,10.1739023 L7.8260625,10.1739023 L7.8260625,17.9238164 C8.21035547,17.9738437 8.60206641,18 9,18 C9.39786328,18 9.78964453,17.9738789 10.1739023,17.9238164 L10.1739023,10.1739727 L10.1739023,10.1739375 L17.9238164,10.1739375 C17.9738437,9.78964453 18,9.39793359 18,9 C18,8.60213672 17.9738437,8.21035547 17.9238164,7.82609766 Z" id="Shape"></path>
                        <path d="M11.3478398,11.3478398 L15.3639492,15.3639844 C15.5486602,15.1793438 15.7248633,14.9863008 15.8929805,14.7861914 L12.4546289,11.3478398 L11.3478398,11.3478398 Z" id="Shape"></path>
                        <path d="M6.65216016,11.347875 L6.65208984,11.347875 L2.63601563,15.3639492 C2.82065625,15.5486602 3.01369922,15.7248633 3.21380859,15.8929805 L6.65216016,12.4545586 L6.65216016,11.347875 Z" id="Shape"></path>
                        <path d="M6.65216016,6.65223047 L6.65216016,6.65216016 L2.63605078,2.63601563 C2.45133984,2.82065625 2.27513672,3.01369922 2.10701953,3.21380859 L5.54540625,6.65219531 L6.65216016,6.65223047 Z" id="Shape"></path>
                        <path d="M11.3478398,6.65223047 L15.3639844,2.63605078 C15.1793438,2.45133984 14.9863008,2.27513672 14.7861914,2.10705469 L11.3478398,5.54544141 L11.3478398,6.65223047 Z" id="Shape"></path>
                    </g>
                </g>
            </g>
        </g>
    </g>
</svg>